<svg width="12" height="17" viewBox="0 0 12 17" fill="none" xmlns="http://www.w3.org/2000/svg">
<g clip-path="url(#clip0_3_1010)">
<path d="M6.05082 0C2.96973 0 0.463135 2.50697 0.463135 5.58813C0.463135 8.55402 5.53294 15.4834 5.74881 15.7768L5.95027 16.051C5.96184 16.0668 5.97697 16.0797 5.99444 16.0885C6.01191 16.0974 6.03123 16.102 6.05082 16.1021C6.07051 16.1021 6.08992 16.0975 6.1075 16.0886C6.12508 16.0797 6.14031 16.0669 6.15198 16.051L6.35332 15.7768C6.56931 15.4834 11.639 8.55402 11.639 5.58813C11.639 2.50697 9.13198 0 6.05082 0ZM6.05082 3.58647C7.15478 3.58647 8.05248 4.48421 8.05248 5.58813C8.05248 6.69148 7.15474 7.58979 6.05082 7.58979C4.94751 7.58979 4.04916 6.69148 4.04916 5.58813C4.04916 4.48421 4.94747 3.58647 6.05082 3.58647Z" fill="#D6CECE"/>
</g>
<defs>
<clipPath id="clip0_3_1010">
<rect width="12" height="16.1021" fill="white"/>
</clipPath>
</defs>
</svg>
