<svg width="21" height="21" viewBox="0 0 21 21" fill="none" xmlns="http://www.w3.org/2000/svg">
<g clip-path="url(#clip0_1_35)">
<path d="M10.4997 0C6.4814 0 3.21234 3.26954 3.21234 7.28794C3.21234 11.156 9.82428 20.1931 10.1058 20.5758L10.3686 20.9334C10.3836 20.954 10.4034 20.9708 10.4262 20.9824C10.4489 20.9939 10.4741 21 10.4997 21C10.5254 21 10.5507 20.994 10.5736 20.9825C10.5965 20.9709 10.6164 20.9541 10.6316 20.9334L10.8942 20.5758C11.1759 20.1931 17.7877 11.156 17.7877 7.28794C17.7877 3.26954 14.5181 0 10.4997 0ZM10.4997 4.67741C11.9395 4.67741 13.1102 5.84822 13.1102 7.28794C13.1102 8.72691 11.9394 9.89846 10.4997 9.89846C9.06078 9.89846 7.88917 8.72691 7.88917 7.28794C7.88917 5.84822 9.06072 4.67741 10.4997 4.67741Z" fill="white"/>
</g>
<defs>
<clipPath id="clip0_1_35">
<rect width="21" height="21" fill="white"/>
</clipPath>
</defs>
</svg>
