<svg width="191" height="46" viewBox="0 0 191 46" fill="none" xmlns="http://www.w3.org/2000/svg">
<path d="M0 11.7327V35.2095L19.4162 46V39.8869V13.5947L12.7086 19.8088V36.1853L11.1046 35.3104V21.11L6.96562 24.7779V33.0558L5.29432 32.1473V14.7949L20.3248 6.12436V0L0 11.7327Z" fill="white"/>
<path d="M20.3249 0V6.12436L35.3442 14.7949V32.1473L33.6841 33.0558V24.7779L29.5451 21.11V35.3104L27.9299 36.1853V19.8088L21.2335 13.5947V39.8869V46L40.6497 35.2095V11.7327L20.3249 0Z" fill="white"/>
<path d="M60.688 22.192C59.824 22.192 59.0187 22.0533 58.272 21.776C57.536 21.488 56.896 21.0827 56.352 20.56C55.808 20.0373 55.3813 19.424 55.072 18.72C54.7733 18.016 54.624 17.2427 54.624 16.4C54.624 15.5573 54.7733 14.784 55.072 14.08C55.3813 13.376 55.808 12.7627 56.352 12.24C56.9067 11.7173 57.552 11.3173 58.288 11.04C59.024 10.752 59.8293 10.608 60.704 10.608C61.6747 10.608 62.5493 10.7787 63.328 11.12C64.1173 11.4507 64.7787 11.9413 65.312 12.592L63.648 14.128C63.264 13.6907 62.8373 13.3653 62.368 13.152C61.8987 12.928 61.3867 12.816 60.832 12.816C60.3093 12.816 59.8293 12.9013 59.392 13.072C58.9547 13.2427 58.576 13.488 58.256 13.808C57.936 14.128 57.6853 14.5067 57.504 14.944C57.3333 15.3813 57.248 15.8667 57.248 16.4C57.248 16.9333 57.3333 17.4187 57.504 17.856C57.6853 18.2933 57.936 18.672 58.256 18.992C58.576 19.312 58.9547 19.5573 59.392 19.728C59.8293 19.8987 60.3093 19.984 60.832 19.984C61.3867 19.984 61.8987 19.8773 62.368 19.664C62.8373 19.44 63.264 19.104 63.648 18.656L65.312 20.192C64.7787 20.8427 64.1173 21.3387 63.328 21.68C62.5493 22.0213 61.6693 22.192 60.688 22.192ZM72.268 22.192C71.3827 22.192 70.5613 22.048 69.804 21.76C69.0573 21.472 68.4067 21.0667 67.852 20.544C67.308 20.0213 66.8813 19.408 66.572 18.704C66.2733 18 66.124 17.232 66.124 16.4C66.124 15.568 66.2733 14.8 66.572 14.096C66.8813 13.392 67.3133 12.7787 67.868 12.256C68.4227 11.7333 69.0733 11.328 69.82 11.04C70.5667 10.752 71.3773 10.608 72.252 10.608C73.1373 10.608 73.948 10.752 74.684 11.04C75.4307 11.328 76.076 11.7333 76.62 12.256C77.1747 12.7787 77.6067 13.392 77.916 14.096C78.2253 14.7893 78.38 15.5573 78.38 16.4C78.38 17.232 78.2253 18.0053 77.916 18.72C77.6067 19.424 77.1747 20.0373 76.62 20.56C76.076 21.072 75.4307 21.472 74.684 21.76C73.948 22.048 73.1427 22.192 72.268 22.192ZM72.252 19.984C72.7533 19.984 73.212 19.8987 73.628 19.728C74.0547 19.5573 74.428 19.312 74.748 18.992C75.068 18.672 75.3133 18.2933 75.484 17.856C75.6653 17.4187 75.756 16.9333 75.756 16.4C75.756 15.8667 75.6653 15.3813 75.484 14.944C75.3133 14.5067 75.068 14.128 74.748 13.808C74.4387 13.488 74.0707 13.2427 73.644 13.072C73.2173 12.9013 72.7533 12.816 72.252 12.816C71.7507 12.816 71.2867 12.9013 70.86 13.072C70.444 13.2427 70.076 13.488 69.756 13.808C69.436 14.128 69.1853 14.5067 69.004 14.944C68.8333 15.3813 68.748 15.8667 68.748 16.4C68.748 16.9227 68.8333 17.408 69.004 17.856C69.1853 18.2933 69.4307 18.672 69.74 18.992C70.06 19.312 70.4333 19.5573 70.86 19.728C71.2867 19.8987 71.7507 19.984 72.252 19.984ZM80.328 22V10.8H82.472L89.08 18.864H88.04V10.8H90.6V22H88.472L81.848 13.936H82.888V22H80.328ZM98.6099 22.192C97.7459 22.192 96.9405 22.0533 96.1939 21.776C95.4579 21.488 94.8179 21.0827 94.2739 20.56C93.7299 20.0373 93.3032 19.424 92.9939 18.72C92.6952 18.016 92.5459 17.2427 92.5459 16.4C92.5459 15.5573 92.6952 14.784 92.9939 14.08C93.3032 13.376 93.7299 12.7627 94.2739 12.24C94.8285 11.7173 95.4739 11.3173 96.2099 11.04C96.9459 10.752 97.7512 10.608 98.6259 10.608C99.5965 10.608 100.471 10.7787 101.25 11.12C102.039 11.4507 102.701 11.9413 103.234 12.592L101.57 14.128C101.186 13.6907 100.759 13.3653 100.29 13.152C99.8205 12.928 99.3085 12.816 98.7539 12.816C98.2312 12.816 97.7512 12.9013 97.3139 13.072C96.8765 13.2427 96.4979 13.488 96.1779 13.808C95.8579 14.128 95.6072 14.5067 95.4259 14.944C95.2552 15.3813 95.1699 15.8667 95.1699 16.4C95.1699 16.9333 95.2552 17.4187 95.4259 17.856C95.6072 18.2933 95.8579 18.672 96.1779 18.992C96.4979 19.312 96.8765 19.5573 97.3139 19.728C97.7512 19.8987 98.2312 19.984 98.7539 19.984C99.3085 19.984 99.8205 19.8773 100.29 19.664C100.759 19.44 101.186 19.104 101.57 18.656L103.234 20.192C102.701 20.8427 102.039 21.3387 101.25 21.68C100.471 22.0213 99.5912 22.192 98.6099 22.192ZM107.195 22V12.912H103.611V10.8H113.371V12.912H109.787V22H107.195ZM114.766 22V10.8H119.614C120.616 10.8 121.48 10.9653 122.206 11.296C122.931 11.616 123.491 12.08 123.886 12.688C124.28 13.296 124.478 14.0213 124.478 14.864C124.478 15.696 124.28 16.416 123.886 17.024C123.491 17.6213 122.931 18.08 122.206 18.4C121.48 18.72 120.616 18.88 119.614 18.88H116.206L117.358 17.744V22H114.766ZM121.885 22L119.086 17.936H121.854L124.686 22H121.885ZM117.358 18.032L116.206 16.816H119.47C120.27 16.816 120.867 16.6453 121.262 16.304C121.656 15.952 121.854 15.472 121.854 14.864C121.854 14.2453 121.656 13.7653 121.262 13.424C120.867 13.0827 120.27 12.912 119.47 12.912H116.206L117.358 11.68V18.032ZM131.507 22.192C129.918 22.192 128.675 21.7493 127.779 20.864C126.883 19.9787 126.435 18.7147 126.435 17.072V10.8H129.027V16.976C129.027 18.0427 129.246 18.8107 129.683 19.28C130.12 19.7493 130.734 19.984 131.523 19.984C132.312 19.984 132.926 19.7493 133.363 19.28C133.8 18.8107 134.019 18.0427 134.019 16.976V10.8H136.579V17.072C136.579 18.7147 136.131 19.9787 135.235 20.864C134.339 21.7493 133.096 22.192 131.507 22.192ZM144.501 22.192C143.637 22.192 142.831 22.0533 142.085 21.776C141.349 21.488 140.709 21.0827 140.164 20.56C139.621 20.0373 139.194 19.424 138.885 18.72C138.586 18.016 138.437 17.2427 138.437 16.4C138.437 15.5573 138.586 14.784 138.885 14.08C139.194 13.376 139.621 12.7627 140.164 12.24C140.719 11.7173 141.365 11.3173 142.101 11.04C142.837 10.752 143.642 10.608 144.517 10.608C145.487 10.608 146.362 10.7787 147.141 11.12C147.93 11.4507 148.591 11.9413 149.125 12.592L147.461 14.128C147.077 13.6907 146.65 13.3653 146.181 13.152C145.711 12.928 145.199 12.816 144.645 12.816C144.122 12.816 143.642 12.9013 143.205 13.072C142.767 13.2427 142.389 13.488 142.069 13.808C141.749 14.128 141.498 14.5067 141.317 14.944C141.146 15.3813 141.061 15.8667 141.061 16.4C141.061 16.9333 141.146 17.4187 141.317 17.856C141.498 18.2933 141.749 18.672 142.069 18.992C142.389 19.312 142.767 19.5573 143.205 19.728C143.642 19.8987 144.122 19.984 144.645 19.984C145.199 19.984 145.711 19.8773 146.181 19.664C146.65 19.44 147.077 19.104 147.461 18.656L149.125 20.192C148.591 20.8427 147.93 21.3387 147.141 21.68C146.362 22.0213 145.482 22.192 144.501 22.192ZM153.086 22V12.912H149.502V10.8H159.262V12.912H155.678V22H153.086ZM160.656 22V10.8H163.248V22H160.656ZM171.346 22.192C170.461 22.192 169.639 22.048 168.882 21.76C168.135 21.472 167.485 21.0667 166.93 20.544C166.386 20.0213 165.959 19.408 165.65 18.704C165.351 18 165.202 17.232 165.202 16.4C165.202 15.568 165.351 14.8 165.65 14.096C165.959 13.392 166.391 12.7787 166.946 12.256C167.501 11.7333 168.151 11.328 168.898 11.04C169.645 10.752 170.455 10.608 171.33 10.608C172.215 10.608 173.026 10.752 173.762 11.04C174.509 11.328 175.154 11.7333 175.698 12.256C176.253 12.7787 176.685 13.392 176.994 14.096C177.303 14.7893 177.458 15.5573 177.458 16.4C177.458 17.232 177.303 18.0053 176.994 18.72C176.685 19.424 176.253 20.0373 175.698 20.56C175.154 21.072 174.509 21.472 173.762 21.76C173.026 22.048 172.221 22.192 171.346 22.192ZM171.33 19.984C171.831 19.984 172.29 19.8987 172.706 19.728C173.133 19.5573 173.506 19.312 173.826 18.992C174.146 18.672 174.391 18.2933 174.562 17.856C174.743 17.4187 174.834 16.9333 174.834 16.4C174.834 15.8667 174.743 15.3813 174.562 14.944C174.391 14.5067 174.146 14.128 173.826 13.808C173.517 13.488 173.149 13.2427 172.722 13.072C172.295 12.9013 171.831 12.816 171.33 12.816C170.829 12.816 170.365 12.9013 169.938 13.072C169.522 13.2427 169.154 13.488 168.834 13.808C168.514 14.128 168.263 14.5067 168.082 14.944C167.911 15.3813 167.826 15.8667 167.826 16.4C167.826 16.9227 167.911 17.408 168.082 17.856C168.263 18.2933 168.509 18.672 168.818 18.992C169.138 19.312 169.511 19.5573 169.938 19.728C170.365 19.8987 170.829 19.984 171.33 19.984ZM179.406 22V10.8H181.55L188.158 18.864H187.118V10.8H189.678V22H187.55L180.926 13.936H181.966V22H179.406Z" fill="white"/>
<path d="M58.21 37.05C57.69 37.05 57.2233 36.9367 56.81 36.71C56.4033 36.4767 56.0833 36.16 55.85 35.76C55.6167 35.3533 55.5 34.89 55.5 34.37C55.5 33.8433 55.6167 33.38 55.85 32.98C56.0833 32.58 56.4033 32.2667 56.81 32.04C57.2233 31.8133 57.69 31.7 58.21 31.7C58.6567 31.7 59.06 31.7867 59.42 31.96C59.78 32.1333 60.0633 32.3933 60.27 32.74L59.74 33.1C59.56 32.8333 59.3367 32.6367 59.07 32.51C58.8033 32.3833 58.5133 32.32 58.2 32.32C57.8267 32.32 57.49 32.4067 57.19 32.58C56.89 32.7467 56.6533 32.9833 56.48 33.29C56.3067 33.5967 56.22 33.9567 56.22 34.37C56.22 34.7833 56.3067 35.1433 56.48 35.45C56.6533 35.7567 56.89 35.9967 57.19 36.17C57.49 36.3367 57.8267 36.42 58.2 36.42C58.5133 36.42 58.8033 36.3567 59.07 36.23C59.3367 36.1033 59.56 35.91 59.74 35.65L60.27 36.01C60.0633 36.35 59.78 36.61 59.42 36.79C59.06 36.9633 58.6567 37.05 58.21 37.05ZM63.4471 37V32.18L63.6271 32.37H61.4571V31.75H66.1471V32.37H63.9771L64.1571 32.18V37H63.4471ZM70.7837 37.05C70.3303 37.05 69.9203 36.9467 69.5537 36.74C69.187 36.5267 68.8937 36.2233 68.6737 35.83C68.4603 35.43 68.3537 34.9433 68.3537 34.37C68.3537 33.7967 68.4603 33.3133 68.6737 32.92C68.887 32.52 69.177 32.2167 69.5437 32.01C69.9103 31.8033 70.3237 31.7 70.7837 31.7C71.2837 31.7 71.7303 31.8133 72.1237 32.04C72.5237 32.26 72.837 32.5733 73.0637 32.98C73.2903 33.38 73.4037 33.8433 73.4037 34.37C73.4037 34.9033 73.2903 35.37 73.0637 35.77C72.837 36.17 72.5237 36.4833 72.1237 36.71C71.7303 36.9367 71.2837 37.05 70.7837 37.05ZM68.0737 38.94V31.75H68.7537V33.33L68.6837 34.38L68.7837 35.44V38.94H68.0737ZM70.7337 36.42C71.107 36.42 71.4403 36.3367 71.7337 36.17C72.027 35.9967 72.2603 35.7567 72.4337 35.45C72.607 35.1367 72.6937 34.7767 72.6937 34.37C72.6937 33.9633 72.607 33.6067 72.4337 33.3C72.2603 32.9933 72.027 32.7533 71.7337 32.58C71.4403 32.4067 71.107 32.32 70.7337 32.32C70.3603 32.32 70.0237 32.4067 69.7237 32.58C69.4303 32.7533 69.197 32.9933 69.0237 33.3C68.857 33.6067 68.7737 33.9633 68.7737 34.37C68.7737 34.7767 68.857 35.1367 69.0237 35.45C69.197 35.7567 69.4303 35.9967 69.7237 36.17C70.0237 36.3367 70.3603 36.42 70.7337 36.42ZM77.9891 37.05C77.4825 37.05 77.0258 36.9367 76.6191 36.71C76.2191 36.4767 75.9025 36.16 75.6691 35.76C75.4358 35.3533 75.3191 34.89 75.3191 34.37C75.3191 33.8433 75.4358 33.38 75.6691 32.98C75.9025 32.58 76.2191 32.2667 76.6191 32.04C77.0191 31.8133 77.4758 31.7 77.9891 31.7C78.5091 31.7 78.9691 31.8133 79.3691 32.04C79.7758 32.2667 80.0925 32.58 80.3191 32.98C80.5525 33.38 80.6691 33.8433 80.6691 34.37C80.6691 34.89 80.5525 35.3533 80.3191 35.76C80.0925 36.16 79.7758 36.4767 79.3691 36.71C78.9625 36.9367 78.5025 37.05 77.9891 37.05ZM77.9891 36.42C78.3691 36.42 78.7058 36.3367 78.9991 36.17C79.2925 35.9967 79.5225 35.7567 79.6891 35.45C79.8625 35.1367 79.9491 34.7767 79.9491 34.37C79.9491 33.9567 79.8625 33.5967 79.6891 33.29C79.5225 32.9833 79.2925 32.7467 78.9991 32.58C78.7058 32.4067 78.3725 32.32 77.9991 32.32C77.6258 32.32 77.2925 32.4067 76.9991 32.58C76.7058 32.7467 76.4725 32.9833 76.2991 33.29C76.1258 33.5967 76.0391 33.9567 76.0391 34.37C76.0391 34.7767 76.1258 35.1367 76.2991 35.45C76.4725 35.7567 76.7058 35.9967 76.9991 36.17C77.2925 36.3367 77.6225 36.42 77.9891 36.42ZM83.0866 37V31.75H83.7966V35.92L87.3066 31.75H87.9366V37H87.2266V32.82L83.7266 37H83.0866ZM91.8713 37V32.18L92.0513 32.37H89.8813V31.75H94.5713V32.37H92.4013L92.5813 32.18V37H91.8713ZM98.5038 37.05C97.9571 37.05 97.4771 36.9367 97.0638 36.71C96.6504 36.4767 96.3271 36.16 96.0938 35.76C95.8604 35.3533 95.7438 34.89 95.7438 34.37C95.7438 33.85 95.8538 33.39 96.0738 32.99C96.3004 32.59 96.6071 32.2767 96.9938 32.05C97.3871 31.8167 97.8271 31.7 98.3138 31.7C98.8071 31.7 99.2438 31.8133 99.6238 32.04C100.01 32.26 100.314 32.5733 100.534 32.98C100.754 33.38 100.864 33.8433 100.864 34.37C100.864 34.4033 100.86 34.44 100.854 34.48C100.854 34.5133 100.854 34.55 100.854 34.59H96.2838V34.06H100.474L100.194 34.27C100.194 33.89 100.11 33.5533 99.9438 33.26C99.7838 32.96 99.5638 32.7267 99.2838 32.56C99.0038 32.3933 98.6804 32.31 98.3138 32.31C97.9538 32.31 97.6304 32.3933 97.3438 32.56C97.0571 32.7267 96.8338 32.96 96.6738 33.26C96.5138 33.56 96.4338 33.9033 96.4338 34.29V34.4C96.4338 34.8 96.5204 35.1533 96.6938 35.46C96.8738 35.76 97.1204 35.9967 97.4338 36.17C97.7538 36.3367 98.1171 36.42 98.5238 36.42C98.8438 36.42 99.1404 36.3633 99.4138 36.25C99.6938 36.1367 99.9338 35.9633 100.134 35.73L100.534 36.19C100.3 36.47 100.007 36.6833 99.6538 36.83C99.3071 36.9767 98.9238 37.05 98.5038 37.05ZM102.268 36.99L102.318 36.38C102.365 36.3867 102.408 36.3967 102.448 36.41C102.495 36.4167 102.535 36.42 102.568 36.42C102.781 36.42 102.951 36.34 103.078 36.18C103.211 36.02 103.311 35.8067 103.378 35.54C103.445 35.2733 103.491 34.9733 103.518 34.64C103.545 34.3 103.568 33.96 103.588 33.62L103.678 31.75H107.528V37H106.818V32.16L106.998 32.37H104.138L104.308 32.15L104.228 33.67C104.208 34.1233 104.171 34.5567 104.118 34.97C104.071 35.3833 103.995 35.7467 103.888 36.06C103.788 36.3733 103.648 36.62 103.468 36.8C103.288 36.9733 103.058 37.06 102.778 37.06C102.698 37.06 102.615 37.0533 102.528 37.04C102.448 37.0267 102.361 37.01 102.268 36.99ZM112.706 33.6C113.366 33.6067 113.866 33.7533 114.206 34.04C114.553 34.3267 114.726 34.74 114.726 35.28C114.726 35.84 114.54 36.27 114.166 36.57C113.8 36.87 113.266 37.0167 112.566 37.01L110.446 37V31.75H111.156V33.58L112.706 33.6ZM112.526 36.47C113.013 36.4767 113.38 36.38 113.626 36.18C113.88 35.9733 114.006 35.6733 114.006 35.28C114.006 34.8867 113.883 34.6 113.636 34.42C113.39 34.2333 113.02 34.1367 112.526 34.13L111.156 34.11V36.45L112.526 36.47ZM116.981 37V31.75H117.691V34.07H121.001V31.75H121.711V37H121.001V34.68H117.691V37H116.981ZM129.749 37V31.75H130.459V37H129.749ZM126.839 33.6C127.499 33.6067 128.002 33.7533 128.349 34.04C128.696 34.3267 128.869 34.74 128.869 35.28C128.869 35.84 128.682 36.27 128.309 36.57C127.936 36.87 127.402 37.0167 126.709 37.01L124.629 37V31.75H125.339V33.58L126.839 33.6ZM126.659 36.47C127.152 36.4767 127.522 36.38 127.769 36.18C128.022 35.9733 128.149 35.6733 128.149 35.28C128.149 34.8867 128.026 34.6 127.779 34.42C127.532 34.2333 127.159 34.1367 126.659 34.13L125.339 34.11V36.45L126.659 36.47ZM135.631 37.05C135.084 37.05 134.604 36.9367 134.191 36.71C133.777 36.4767 133.454 36.16 133.221 35.76C132.987 35.3533 132.871 34.89 132.871 34.37C132.871 33.85 132.981 33.39 133.201 32.99C133.427 32.59 133.734 32.2767 134.121 32.05C134.514 31.8167 134.954 31.7 135.441 31.7C135.934 31.7 136.371 31.8133 136.751 32.04C137.137 32.26 137.441 32.5733 137.661 32.98C137.881 33.38 137.991 33.8433 137.991 34.37C137.991 34.4033 137.987 34.44 137.981 34.48C137.981 34.5133 137.981 34.55 137.981 34.59H133.411V34.06H137.601L137.321 34.27C137.321 33.89 137.237 33.5533 137.071 33.26C136.911 32.96 136.691 32.7267 136.411 32.56C136.131 32.3933 135.807 32.31 135.441 32.31C135.081 32.31 134.757 32.3933 134.471 32.56C134.184 32.7267 133.961 32.96 133.801 33.26C133.641 33.56 133.561 33.9033 133.561 34.29V34.4C133.561 34.8 133.647 35.1533 133.821 35.46C134.001 35.76 134.247 35.9967 134.561 36.17C134.881 36.3367 135.244 36.42 135.651 36.42C135.971 36.42 136.267 36.3633 136.541 36.25C136.821 36.1367 137.061 35.9633 137.261 35.73L137.661 36.19C137.427 36.47 137.134 36.6833 136.781 36.83C136.434 36.9767 136.051 37.05 135.631 37.05ZM146.69 37.05C146.236 37.05 145.826 36.9467 145.46 36.74C145.093 36.5267 144.8 36.2233 144.58 35.83C144.366 35.43 144.26 34.9433 144.26 34.37C144.26 33.7967 144.366 33.3133 144.58 32.92C144.793 32.52 145.083 32.2167 145.45 32.01C145.816 31.8033 146.23 31.7 146.69 31.7C147.19 31.7 147.636 31.8133 148.03 32.04C148.43 32.26 148.743 32.5733 148.97 32.98C149.196 33.38 149.31 33.8433 149.31 34.37C149.31 34.9033 149.196 35.37 148.97 35.77C148.743 36.17 148.43 36.4833 148.03 36.71C147.636 36.9367 147.19 37.05 146.69 37.05ZM143.98 38.94V31.75H144.66V33.33L144.59 34.38L144.69 35.44V38.94H143.98ZM146.64 36.42C147.013 36.42 147.346 36.3367 147.64 36.17C147.933 35.9967 148.166 35.7567 148.34 35.45C148.513 35.1367 148.6 34.7767 148.6 34.37C148.6 33.9633 148.513 33.6067 148.34 33.3C148.166 32.9933 147.933 32.7533 147.64 32.58C147.346 32.4067 147.013 32.32 146.64 32.32C146.266 32.32 145.93 32.4067 145.63 32.58C145.336 32.7533 145.103 32.9933 144.93 33.3C144.763 33.6067 144.68 33.9633 144.68 34.37C144.68 34.7767 144.763 35.1367 144.93 35.45C145.103 35.7567 145.336 35.9967 145.63 36.17C145.93 36.3367 146.266 36.42 146.64 36.42ZM154.966 37V35.84L154.936 35.65V33.71C154.936 33.2633 154.809 32.92 154.556 32.68C154.309 32.44 153.939 32.32 153.446 32.32C153.106 32.32 152.782 32.3767 152.476 32.49C152.169 32.6033 151.909 32.7533 151.696 32.94L151.376 32.41C151.642 32.1833 151.962 32.01 152.336 31.89C152.709 31.7633 153.102 31.7 153.516 31.7C154.196 31.7 154.719 31.87 155.086 32.21C155.459 32.5433 155.646 33.0533 155.646 33.74V37H154.966ZM153.156 37.05C152.762 37.05 152.419 36.9867 152.126 36.86C151.839 36.7267 151.619 36.5467 151.466 36.32C151.312 36.0867 151.236 35.82 151.236 35.52C151.236 35.2467 151.299 35 151.426 34.78C151.559 34.5533 151.772 34.3733 152.066 34.24C152.366 34.1 152.766 34.03 153.266 34.03H155.076V34.56H153.286C152.779 34.56 152.426 34.65 152.226 34.83C152.032 35.01 151.936 35.2333 151.936 35.5C151.936 35.8 152.052 36.04 152.286 36.22C152.519 36.4 152.846 36.49 153.266 36.49C153.666 36.49 154.009 36.4 154.296 36.22C154.589 36.0333 154.802 35.7667 154.936 35.42L155.096 35.91C154.962 36.2567 154.729 36.5333 154.396 36.74C154.069 36.9467 153.656 37.05 153.156 37.05ZM160.796 37.06C160.369 37.06 159.989 36.99 159.656 36.85C159.329 36.71 159.049 36.4967 158.816 36.21C158.582 35.9233 158.406 35.57 158.286 35.15C158.166 34.7233 158.106 34.23 158.106 33.67C158.106 33.17 158.152 32.7333 158.246 32.36C158.339 31.98 158.469 31.6533 158.636 31.38C158.802 31.1067 158.996 30.8767 159.216 30.69C159.442 30.4967 159.686 30.3433 159.946 30.23C160.212 30.11 160.486 30.02 160.766 29.96L163.126 29.41L163.246 30.07L161.026 30.57C160.886 30.6033 160.716 30.65 160.516 30.71C160.322 30.77 160.122 30.86 159.916 30.98C159.716 31.1 159.529 31.2667 159.356 31.48C159.182 31.6933 159.042 31.97 158.936 32.31C158.836 32.6433 158.786 33.06 158.786 33.56C158.786 33.6667 158.789 33.7533 158.796 33.82C158.802 33.88 158.809 33.9467 158.816 34.02C158.829 34.0867 158.839 34.1867 158.846 34.32L158.536 34.06C158.609 33.6533 158.759 33.3 158.986 33C159.212 32.6933 159.496 32.4567 159.836 32.29C160.182 32.1167 160.566 32.03 160.986 32.03C161.472 32.03 161.906 32.1367 162.286 32.35C162.666 32.5567 162.962 32.8467 163.176 33.22C163.396 33.5933 163.506 34.0267 163.506 34.52C163.506 35.0067 163.392 35.4433 163.166 35.83C162.946 36.2167 162.632 36.52 162.226 36.74C161.819 36.9533 161.342 37.06 160.796 37.06ZM160.876 36.47C161.249 36.47 161.579 36.3867 161.866 36.22C162.152 36.0467 162.376 35.8133 162.536 35.52C162.702 35.2267 162.786 34.8967 162.786 34.53C162.786 34.17 162.702 33.85 162.536 33.57C162.376 33.29 162.152 33.07 161.866 32.91C161.579 32.7433 161.246 32.66 160.866 32.66C160.492 32.66 160.162 32.74 159.876 32.9C159.589 33.0533 159.362 33.27 159.196 33.55C159.036 33.83 158.956 34.1533 158.956 34.52C158.956 34.8867 159.036 35.2167 159.196 35.51C159.362 35.8033 159.589 36.0367 159.876 36.21C160.169 36.3833 160.502 36.47 160.876 36.47ZM168.088 37.05C167.581 37.05 167.124 36.9367 166.718 36.71C166.318 36.4767 166.001 36.16 165.768 35.76C165.534 35.3533 165.418 34.89 165.418 34.37C165.418 33.8433 165.534 33.38 165.768 32.98C166.001 32.58 166.318 32.2667 166.718 32.04C167.118 31.8133 167.574 31.7 168.088 31.7C168.608 31.7 169.068 31.8133 169.468 32.04C169.874 32.2667 170.191 32.58 170.418 32.98C170.651 33.38 170.768 33.8433 170.768 34.37C170.768 34.89 170.651 35.3533 170.418 35.76C170.191 36.16 169.874 36.4767 169.468 36.71C169.061 36.9367 168.601 37.05 168.088 37.05ZM168.088 36.42C168.468 36.42 168.804 36.3367 169.098 36.17C169.391 35.9967 169.621 35.7567 169.788 35.45C169.961 35.1367 170.048 34.7767 170.048 34.37C170.048 33.9567 169.961 33.5967 169.788 33.29C169.621 32.9833 169.391 32.7467 169.098 32.58C168.804 32.4067 168.471 32.32 168.098 32.32C167.724 32.32 167.391 32.4067 167.098 32.58C166.804 32.7467 166.571 32.9833 166.398 33.29C166.224 33.5967 166.138 33.9567 166.138 34.37C166.138 34.7767 166.224 35.1367 166.398 35.45C166.571 35.7567 166.804 35.9967 167.098 36.17C167.391 36.3367 167.721 36.42 168.088 36.42ZM173.99 37V32.18L174.17 32.37H172V31.75H176.69V32.37H174.52L174.7 32.18V37H173.99ZM183.736 37V31.75H184.446V37H183.736ZM180.826 33.6C181.486 33.6067 181.99 33.7533 182.336 34.04C182.683 34.3267 182.856 34.74 182.856 35.28C182.856 35.84 182.67 36.27 182.296 36.57C181.923 36.87 181.39 37.0167 180.696 37.01L178.616 37V31.75H179.326V33.58L180.826 33.6ZM180.646 36.47C181.14 36.4767 181.51 36.38 181.756 36.18C182.01 35.9733 182.136 35.6733 182.136 35.28C182.136 34.8867 182.013 34.6 181.766 34.42C181.52 34.2333 181.146 34.1367 180.646 34.13L179.326 34.11V36.45L180.646 36.47Z" fill="white"/>
</svg>
