<svg width="46" height="46" viewBox="0 0 46 46" fill="none" xmlns="http://www.w3.org/2000/svg">
<g clip-path="url(#clip0_29_153)">
<path d="M45.4379 42.7286L32.3568 29.6474C34.8907 26.5176 36.4163 22.5405 36.4163 18.2089C36.4163 8.16951 28.2475 0.000732422 18.2081 0.000732422C8.16869 0.000732422 0 8.16942 0 18.2088C0 28.2482 8.16878 36.417 18.2082 36.417C22.5398 36.417 26.5169 34.8914 29.6467 32.3576L42.7278 45.4387C43.1016 45.8124 43.5922 46.0003 44.0829 46.0003C44.5737 46.0003 45.0643 45.8124 45.438 45.4387C46.1874 44.6893 46.1874 43.4779 45.4379 42.7286ZM18.2082 32.5837C10.2809 32.5837 3.83333 26.1361 3.83333 18.2088C3.83333 10.2815 10.2809 3.83397 18.2082 3.83397C26.1355 3.83397 32.583 10.2815 32.583 18.2088C32.583 26.1361 26.1354 32.5837 18.2082 32.5837Z" fill="white"/>
</g>
<defs>
<clipPath id="clip0_29_153">
<rect width="46" height="46" fill="white"/>
</clipPath>
</defs>
</svg>
