<svg width="248" height="51" viewBox="0 0 248 51" fill="none" xmlns="http://www.w3.org/2000/svg">
<path fill-rule="evenodd" clip-rule="evenodd" d="M46.3949 7.60401H37.7528C36.5498 7.60401 36.0326 7.99494 35.626 9.14828L24.3567 41.1507C24.2611 41.4133 24.211 41.6904 24.2087 41.9701C24.2087 42.9732 25.0965 43.0872 25.9302 43.0872H227.438L225.882 47.4792H15.7892C13.5132 47.4792 10.9413 46.01 10.9413 43.4392C10.9413 42.6574 11.1639 41.8769 11.4225 41.1507L24.5239 3.48899C25.2084 1.51627 27.2811 0.0263672 29.3718 0.0263672H48.9668L46.3949 7.60401Z" fill="#9CA09E"/>
<path fill-rule="evenodd" clip-rule="evenodd" d="M40.4546 39.7917H40.4173C38.1593 39.7917 35.6427 39.1768 35.6427 36.4042C35.6427 36.0326 35.698 35.678 35.8293 35.3246L42.8978 14.734C43.6749 12.4441 45.5251 11.0111 47.9683 11.0111H60.5693C62.642 11.0111 64.4175 12.4816 64.4175 14.6977C64.4175 15.3488 64.2876 16.0012 64.0663 16.6148L57.0903 36.3485C56.2759 38.6565 54.4631 39.7917 52.0571 39.7917H40.4546ZM61.3464 39.7917L71.3755 11.0111H80.0356L78.6846 14.5851L82.0349 11.0111H88.2338C90.0839 11.0111 91.9341 12.3884 91.9341 14.3806C91.9341 15.2 91.6742 15.9999 91.3975 16.7636L83.1453 39.7917H74.4852L83.1453 15.4226H78.6859L70.1004 39.7917H61.3464ZM91.027 31.8425H99.7797L98.4468 35.3233H102.924L105.608 27.5243H92.5439L97.0586 14.4362C97.8177 12.2396 99.7411 11.0111 102.017 11.0111H115.247C117.023 11.0111 118.948 12.1464 118.948 14.1579C118.948 14.5864 118.855 15.0136 118.726 15.4239L117.19 20.1706H108.309L109.918 15.4239H105.607L102.923 23.1685H116.154L111.528 36.6475C110.769 38.8998 108.567 39.793 106.384 39.793H93.6529C91.7475 39.793 89.8047 38.7134 89.8047 36.5543C89.8047 36.1271 89.8793 35.7181 89.99 35.3259L91.027 31.8425ZM116.284 39.7917L124.816 15.4226H121.002L122.576 11.0111H126.351L128.459 5.12793H136.88L135.027 11.0111H138.304L136.676 15.4226H133.475L124.816 39.7917H116.284ZM130.495 39.7917L140.654 11.0111H149.924C151.738 11.0111 153.754 11.7749 153.902 13.8408C153.94 14.4921 153.846 15.1444 153.625 15.7579L152.07 20.1706H148.333L149.924 15.4239H147.87L139.302 39.793L130.495 39.7917ZM157.455 11.0111H166.022L157.455 35.3246H161.916L170.63 11.0111H179.4L169.371 39.7917H160.601L161.915 36.685L158.62 39.7917H152.828C151.106 39.7917 148.739 39.2157 148.739 37.0358C148.739 36.4417 148.905 35.8631 149.09 35.3246L157.455 11.0111ZM188.152 39.7917H179.548C177.753 39.7917 176.181 38.3406 176.181 36.4974C176.181 36.1051 176.254 35.6961 176.384 35.3246L183.342 15.4226C184.136 13.1522 185.488 11.0111 188.151 11.0111H196.81L195.33 15.4226H191.76L184.729 35.3246H189.521L188.152 39.7917ZM191.261 39.7917L200.014 15.4226H197.295L198.923 11.0111H201.29L203.309 5.12793H212.209L210.301 11.0111H213.523L212.209 15.4226H208.711L200.014 39.7917H191.261ZM228.548 39.7917H219.444L220.703 36.8896L217.371 39.7917H211.081C209.339 39.7917 207.397 38.8235 207.397 36.8313C207.397 36.3304 207.508 35.8074 207.693 35.3246L212.209 23.1672L212.654 21.8081C213.19 20.2444 214.911 19.1648 216.519 19.1648H226.438L227.735 15.4226H215.818L217.371 11.0111H232.951C234.654 11.0111 237.059 11.5704 237.059 13.7101C237.059 14.2874 236.837 14.8828 236.669 15.4226L228.548 39.7917Z" fill="#9CA09E"/>
<path fill-rule="evenodd" clip-rule="evenodd" d="M44.4341 35.3231H48.8741L55.8128 15.4224H51.3907L44.4341 35.3231ZM216.631 35.3231H220.702L224.866 24.0783H220.702L216.631 35.3231Z" fill="white"/>
</svg>
