<svg width="120" height="61" viewBox="0 0 120 61" fill="none" xmlns="http://www.w3.org/2000/svg">
<path d="M32.2566 26.9844L32.4294 27.153C32.4394 27.1692 32.4607 27.1829 32.4772 27.1994C33.0732 27.7437 34.6241 28.9131 35.8641 27.7012C36.0072 27.5559 36.175 27.3899 36.3644 27.2074L36.7481 26.8318C36.8138 26.7661 36.8794 26.6983 36.949 26.6305L38.0569 25.5462L38.5128 25.0965C39.9566 23.6804 41.3331 22.3288 41.3331 22.3288C41.3331 22.3288 41.3397 22.3257 41.3528 22.3162L41.4532 22.2095C41.6672 21.9677 42.01 21.3821 41.269 20.6019C41.2493 20.5766 41.2181 20.5534 41.1981 20.5308L27.4589 7.0448C26.1089 5.72335 23.8992 5.72335 22.5592 7.0448L1.35002 27.8577C2.45489e-05 29.1786 2.45489e-05 31.3421 1.35002 32.6643L22.5592 53.4803C23.8992 54.7984 26.1089 54.7984 27.4589 53.4803L40.9428 40.2441C41.809 39.3925 41.3147 38.6801 41.1866 38.5316L41.1635 38.5023L35.457 32.9038C34.3273 31.7988 33.4023 32.4386 33.1404 32.6726C33.086 32.7169 33.0629 32.7468 33.0629 32.7468L25.9999 39.6786C25.7353 39.9358 25.3779 40.0801 25.0055 40.0801C24.6331 40.0801 24.2757 39.9358 24.0111 39.6786L15.4102 31.2328C14.865 30.7003 14.865 29.8232 15.4102 29.2858L24.0111 20.8447C24.2754 20.587 24.6329 20.4424 25.0055 20.4424C25.3781 20.4424 25.7355 20.587 25.9999 20.8447L32.2251 26.9512V26.9545C32.2317 26.9592 32.2466 26.9692 32.2566 26.9844Z" fill="#9CA09E"/>
<path d="M70.7327 27.4316V27.43L64.5101 21.3202C63.9593 20.7856 63.0639 20.7856 62.521 21.3202L53.9168 29.7613C53.3736 30.2982 53.3736 31.1774 53.9168 31.7114L62.521 40.1544C63.0639 40.6907 63.9595 40.6907 64.5101 40.1544L65.6683 39.0164L60.0017 33.3365H73.9175C73.9298 33.3499 73.9501 33.3641 73.9637 33.3808L74.0541 33.4705C75.491 34.8807 79.6694 38.9796 79.6694 38.9796C79.6694 38.9796 79.6797 38.9912 79.6944 39.01C79.8197 39.1592 80.3163 39.8716 79.4486 40.7199L65.9683 53.9519C64.6148 55.277 62.4105 55.277 61.0649 53.9519L39.8594 33.1411C38.5128 31.8212 38.5128 29.657 39.8594 28.3332L61.0649 7.52185C62.4105 6.2004 64.6148 6.2004 65.9683 7.52185L79.7023 21.0078C79.7293 21.0287 79.7551 21.0555 79.7732 21.079C80.5125 21.8576 80.1756 22.446 79.9647 22.6847L79.8578 22.7914C79.8475 22.8009 79.8399 22.8058 79.8399 22.8058C79.8399 22.8058 78.465 24.1575 77.0215 25.5753L76.5652 26.0217L75.4619 27.1076C75.3865 27.1754 75.3187 27.2416 75.2523 27.3094L74.8725 27.6865C74.6865 27.8667 74.5166 28.0311 74.3724 28.1765C73.1338 29.3902 71.5831 28.2223 70.9837 27.6759C70.969 27.6599 70.9475 27.6447 70.9375 27.6285L70.765 27.4615C70.7497 27.4468 70.7398 27.4362 70.7327 27.4316Z" fill="#9CA09E"/>
<path d="M110.25 26.9844L110.422 27.153C110.434 27.1692 110.454 27.1829 110.471 27.1994C111.068 27.7437 112.618 28.9131 113.853 27.7012C114.004 27.5559 114.172 27.3899 114.353 27.2074L114.738 26.8318C114.807 26.7661 114.873 26.6983 114.946 26.6305L116.047 25.5462L116.507 25.0965L119.328 22.3288C119.328 22.3288 119.335 22.3257 119.343 22.3162L119.45 22.2095C119.661 21.9677 120 21.3821 119.261 20.6019C119.239 20.5766 119.212 20.5534 119.193 20.5308L105.447 7.0448C104.102 5.72335 101.899 5.72335 100.549 7.0448L79.3401 27.8577C77.9969 29.1786 77.9969 31.3421 79.3401 32.6643L100.549 53.4803C101.899 54.7984 104.102 54.7984 105.447 53.4803L118.936 40.2441C119.803 39.3925 119.301 38.6801 119.179 38.5316L119.157 38.5023L113.449 32.9038C112.321 31.7988 111.4 32.4386 111.135 32.6726C111.082 32.7169 111.056 32.7468 111.056 32.7468L103.993 39.6786C103.449 40.2139 102.552 40.2139 102.005 39.6786L93.404 31.2328C92.8598 30.7003 92.8598 29.8232 93.404 29.2858L102.005 20.8447C102.552 20.3083 103.449 20.3083 103.993 20.8447L110.22 26.9512V26.9545C110.232 26.9626 110.242 26.9727 110.25 26.9844Z" fill="#9CA09E"/>
</svg>
