<svg width="323" height="55" viewBox="0 0 323 55" fill="none" xmlns="http://www.w3.org/2000/svg">
<g clip-path="url(#clip0_29_168)">
<path fill-rule="evenodd" clip-rule="evenodd" d="M71.8087 40.9268H60.4545V40.0139V39.101L63.5788 38.9489C63.8836 38.9489 64.1122 38.6446 64.1122 38.3403V7.22689L60.4545 7.15082V5.32509C63.1216 5.24902 66.6269 5.24902 70.2847 5.24902C75.9999 5.24902 79.2767 6.00974 82.4772 8.13976C86.6684 10.8783 89.2593 16.2034 89.2593 22.0609C89.2593 28.6792 87.0494 34.3085 83.163 37.5035C80.2673 39.7857 76.5333 40.9268 71.8087 40.9268ZM70.8943 6.92261C69.2178 6.92261 68.2272 6.99868 67.6938 7.15082L67.4652 7.22689L67.389 36.6667C67.389 38.5685 68.2272 39.101 71.5801 39.101C75.9237 39.101 79.4291 37.8078 81.7914 35.3735C84.2299 32.8631 85.8301 28.2227 85.8301 23.5824C85.8301 17.4205 84.6109 13.8452 81.2579 10.498C78.8194 8.13976 75.3141 6.92261 70.8943 6.92261Z" fill="#9CA09E"/>
<path d="M70.361 5.5532C76 5.5532 79.2767 6.31392 82.3248 8.36786C86.3636 11.0304 88.8783 16.2793 88.8783 21.9847C88.8783 28.4508 86.7446 34.0041 82.9345 37.123C80.0388 39.4813 76.4572 40.6224 71.8088 40.6224H60.8356V40.0899V39.5573L63.5789 39.4052C64.1123 39.4052 64.5695 38.9488 64.5695 38.4163V6.84642H63.8075L60.8356 6.77035V5.70534C63.5789 5.62927 66.9318 5.5532 70.361 5.5532ZM71.5802 39.4813C76 39.4813 79.6577 38.1881 82.0962 35.6777C84.6109 33.0912 86.2874 28.3748 86.2874 23.5822C86.2874 17.3443 84.992 13.6168 81.5628 10.1936C79.0481 7.75928 75.4666 6.46606 70.8944 6.46606C69.1417 6.46606 68.1511 6.54213 67.6176 6.77035L67.0842 6.92249V7.455L67.008 36.6666C67.008 39.1009 68.3797 39.4813 71.5802 39.4813ZM70.361 4.79248C66.5508 4.79248 62.893 4.86855 60.2259 4.86855C60.1497 5.62927 60.1497 6.54213 60.1497 7.455L63.8075 7.53107V38.2641C63.8075 38.3402 63.7313 38.4923 63.5789 38.4923L60.0735 38.6445C60.0735 39.4052 59.9973 40.3941 59.9973 41.2309C61.9024 41.2309 64.1123 41.1549 65.7888 41.1549C67.008 41.1549 69.7513 41.2309 71.7326 41.2309C76.6858 41.2309 80.4198 40.0138 83.3917 37.5795C87.5067 34.1562 89.6404 28.2987 89.6404 21.8326C89.6404 15.6708 86.8208 10.3457 82.7059 7.60714C79.7339 5.70534 76.4572 4.79248 70.361 4.79248ZM71.5802 38.7206C68.1511 38.7206 67.77 38.1881 67.77 36.6666L67.8462 7.455C68.3797 7.30285 69.5227 7.22678 70.8944 7.22678C75.4666 7.22678 78.7433 8.52 81.0294 10.7261C84.1537 13.845 85.5254 17.2683 85.5254 23.5822C85.5254 28.2226 83.9251 32.7109 81.5628 35.1452C79.3529 37.4273 76 38.7206 71.5802 38.7206Z" fill="#9CA09E"/>
<path fill-rule="evenodd" clip-rule="evenodd" d="M97.2607 54.62C96.5748 54.4678 94.9746 53.2507 94.6698 52.7182C96.4224 51.3489 97.8703 49.9035 99.0133 48.306C100.537 46.4042 102.061 43.7417 102.823 41.5356L102.9 41.3835L102.823 41.2313C101.071 36.5149 99.8516 32.9395 98.5561 29.0598C98.0227 27.5384 97.5655 26.093 97.1845 24.8759C96.651 23.1262 96.1176 21.6808 95.6604 20.3876C95.508 20.0833 95.2794 20.0073 95.0508 20.0073L92.9933 19.8551V18.1055H102.595V19.8551L98.9371 20.0073L99.0895 20.4637C99.3182 21.3766 100.004 23.8869 101.299 28.223C102.29 31.342 103.128 34.0806 104.119 37.1234L104.195 37.3517H104.957L105.033 37.1234C106.024 34.4609 106.786 32.407 107.777 29.288C108.844 26.0169 109.529 23.5826 110.063 21.7569L110.368 20.768C110.444 20.4637 110.368 20.3116 110.291 20.2355C110.215 20.0833 110.063 20.0073 109.834 20.0073L107.167 19.9312V18.2576H115.321V20.0073L113.187 20.1594L113.111 20.3876C112.73 21.6048 111.739 24.1912 110.596 27.4623C110.139 28.7555 109.606 30.2009 109.072 31.6463C108.615 32.9395 104.348 44.1981 101.223 49.4471C99.6992 52.1096 98.3275 53.8593 97.2607 54.62Z" fill="#9CA09E"/>
<path d="M102.214 18.4858V19.4748L99.3943 19.6269L98.4799 19.703L98.7085 20.6158C98.9371 21.5287 99.6229 24.0391 100.995 28.3752C101.985 31.4941 102.823 34.3088 103.814 37.2756L103.967 37.8081H105.262L105.414 37.3517C106.405 34.6891 107.167 32.6352 108.158 29.5162C109.225 26.2452 109.91 23.8109 110.444 21.9851C110.52 21.6048 110.672 21.3005 110.749 20.9201C110.901 20.4637 110.672 20.1594 110.596 20.0073C110.444 19.779 110.139 19.6269 109.91 19.6269L107.624 19.5508V18.5619H115.092V19.5508L113.568 19.703L113.035 19.779L112.882 20.2355C112.501 21.3765 111.587 23.963 110.368 27.3102C109.91 28.6034 109.377 30.0487 108.844 31.4941C108.386 32.7873 104.119 44.046 100.995 49.2189C99.4705 51.8053 98.1751 53.4789 97.1844 54.3157C96.651 54.0875 95.6604 53.4028 95.2031 52.8703C96.8796 51.5771 98.2513 50.1317 99.3181 48.6103C100.842 46.6324 102.366 43.9699 103.204 41.7638L103.281 41.5356L103.204 41.3074C101.452 36.5909 100.233 33.0156 98.9371 29.1359C98.4037 27.6144 97.9465 26.1691 97.5655 24.9519C97.032 23.2023 96.4986 21.7569 96.0414 20.4637V20.3115C95.889 19.9312 95.508 19.779 95.127 19.703L93.4505 19.5508V18.5619H102.214M115.854 17.7251C114.711 17.7251 113.34 17.8012 111.968 17.8012H106.938C106.862 18.5619 106.862 19.3987 106.862 20.2355L109.91 20.3876C110.063 20.3876 110.063 20.4637 110.063 20.6919C109.529 22.6698 108.844 25.3323 107.548 29.212C106.481 32.4831 105.719 34.537 104.805 37.0474H104.576C103.738 34.4609 102.823 31.6463 101.757 28.1469C100.69 24.5716 99.9278 21.9091 99.5467 20.3876L103.052 20.2355C103.128 19.4748 103.128 18.5619 103.128 17.8012H92.8409C92.7647 18.4858 92.7646 19.4748 92.7646 20.2355L95.2031 20.3876C95.2794 20.3876 95.4318 20.4637 95.4318 20.5398L98.3275 29.212C99.7753 33.472 100.995 36.8952 102.595 41.3835C101.757 43.5896 100.233 46.2521 98.7847 48.0778C97.5655 49.7514 96.0414 51.2728 94.3649 52.566C94.3649 53.2507 96.5748 55.0003 97.4892 55.0003C98.7847 54.1636 100.233 52.1096 101.757 49.5232C104.424 45.0349 108.005 35.9063 109.606 31.6463C111.434 26.6255 113.187 22.0612 113.721 20.3876L115.93 20.2355C115.854 19.3226 115.854 18.4858 115.854 17.7251Z" fill="#9CA09E"/>
<path fill-rule="evenodd" clip-rule="evenodd" d="M118.14 40.8509V39.1012L120.731 38.9491C121.036 38.9491 121.265 38.6448 121.265 38.3405L121.188 20.6918L117.378 20.6157V19.855V19.0182C118.293 18.8661 119.512 18.5618 120.655 18.3336C121.798 18.1054 123.094 17.8011 123.627 17.725C123.779 18.8661 124.008 20.1593 124.16 20.8439L124.237 21.0722L124.922 21.2243L125.075 21.1482C129.952 17.8011 131.019 17.6489 133.076 17.6489C135.972 17.6489 137.572 20.3875 138.029 21.2243C138.639 22.4415 139.02 23.7347 139.02 25.18C139.02 27.7665 138.944 30.8854 138.944 33.8522C138.944 35.5258 138.868 37.1994 138.868 38.7208V39.1012L142.068 39.2533V40.9269H132.771V39.2533L135.438 39.1012L135.515 39.0251C135.667 38.9491 135.819 38.7969 135.819 38.4926C135.896 35.4498 135.896 31.3419 135.896 28.3751C135.896 26.0168 135.896 23.8108 135.21 22.5175C134.219 20.4636 132.771 20.1593 131.476 20.1593C129.418 20.1593 126.446 21.909 124.618 23.5065L124.465 23.5825V23.7347C124.389 28.299 124.389 34.689 124.389 38.5687V38.9491L127.971 39.1012V40.7748H120.198C119.436 40.8509 118.75 40.8509 118.14 40.8509Z" fill="#9CA09E"/>
<path d="M133.076 17.9531C135.743 17.9531 137.267 20.5395 137.725 21.3003C138.334 22.4413 138.639 23.6585 138.639 25.1039C138.639 27.6903 138.563 30.8093 138.563 33.7761C138.563 35.4496 138.487 37.1232 138.487 38.6447V39.4054L139.249 39.4815L141.687 39.6336V40.5465H133.152V39.6336L135.286 39.4815H135.515L135.667 39.4054C135.972 39.1772 136.124 38.8729 136.124 38.5686C136.2 35.5257 136.2 31.4178 136.2 28.451C136.2 26.0928 136.2 23.8106 135.438 22.4413C134.295 20.1592 132.771 19.8549 131.4 19.8549C129.19 19.8549 126.218 21.6046 124.237 23.2781L124.008 23.5064V23.8106C123.932 28.375 123.932 34.765 123.932 38.6447V39.4054H124.694L127.589 39.5575V40.4704H118.674V39.4815L120.884 39.3293C121.417 39.3293 121.798 38.8729 121.798 38.3404L121.722 20.996V20.2353H120.96L117.835 20.1592V19.7788V19.2463C118.674 19.0942 119.817 18.7899 120.884 18.5617C121.798 18.3335 122.789 18.1052 123.398 18.0292C123.551 19.0181 123.703 20.1592 123.856 20.7678L123.932 21.2242L124.389 21.3003L124.618 21.3763L124.922 21.4524L125.227 21.2242C130.104 18.1052 131.095 17.9531 133.076 17.9531ZM133.076 17.1924C130.942 17.1924 129.799 17.3445 124.922 20.7678L124.694 20.6917C124.541 19.931 124.313 18.4095 124.16 17.3445C124.16 17.2685 124.16 17.1924 124.084 17.1924C123.703 17.1924 119.207 18.2574 117.226 18.6377C117.226 19.3985 117.15 20.2353 117.15 20.9199L120.96 20.996L121.036 38.3404C121.036 38.4164 120.96 38.5686 120.807 38.5686L117.835 38.7207C117.759 39.4815 117.759 40.3943 117.759 41.155C119.283 41.155 120.96 41.079 122.56 41.079H128.199C128.199 40.3943 128.275 39.4815 128.275 38.6447L124.694 38.4925C124.694 34.3846 124.77 27.9185 124.77 23.6585C126.751 21.9088 129.571 20.3874 131.4 20.3874C132.619 20.3874 133.838 20.6156 134.753 22.5174C135.438 23.7346 135.438 25.9407 135.438 28.1467C135.438 31.2657 135.438 35.2975 135.362 38.2643C135.362 38.4164 135.286 38.4164 135.21 38.4925L132.314 38.6447C132.238 39.4054 132.238 40.3182 132.238 41.079C133.61 41.079 135.515 41.0029 137.039 41.0029H142.297C142.373 40.2422 142.373 39.3293 142.373 38.5686L139.172 38.4164C139.249 34.2325 139.325 28.9835 139.325 24.8756C139.325 23.5824 139.096 22.1371 138.334 20.7678C137.496 19.1703 135.667 17.1924 133.076 17.1924Z" fill="#9CA09E"/>
<path fill-rule="evenodd" clip-rule="evenodd" d="M150.832 41.4593C148.774 41.4593 145.573 39.4054 145.573 36.3625C145.573 33.3957 148.393 29.2118 154.794 29.2118H158.68V28.8314C158.833 24.7996 158.299 22.4414 157.08 21.2242C156.394 20.4635 155.404 20.1592 154.184 20.1592C151.67 20.1592 149.46 22.2131 148.241 23.6585C147.86 23.126 147.402 22.5935 147.021 22.1371C148.85 20.0831 151.594 17.5728 155.404 17.5728C159.366 17.5728 161.729 20.8438 161.729 26.245C161.729 28.9835 161.652 35.7539 161.652 38.0361C161.652 39.1772 162.262 39.2532 162.491 39.2532L165.463 39.1772V40.8508C164.548 41.079 162.186 41.4593 160.281 41.4593C159.9 41.0029 159.442 40.2422 158.909 39.4054L158.68 38.949H158.071L157.995 39.025C154.337 41.079 152.584 41.4593 150.832 41.4593ZM155.48 30.8853C151.365 30.8853 148.85 32.7111 148.85 35.83C148.85 37.8079 150.45 39.2532 152.584 39.2532C153.88 39.2532 156.242 38.6447 158.376 36.895C158.68 36.6668 158.68 36.3625 158.68 36.0582V31.0375L158.376 30.9614C157.918 30.8853 156.013 30.8853 155.48 30.8853Z" fill="#9CA09E"/>
<path d="M155.327 17.9531C159.061 17.9531 161.271 21.072 161.271 26.2449C161.271 28.9835 161.195 35.7539 161.195 38.0361C161.195 39.5575 162.186 39.6336 162.414 39.6336L164.929 39.5575V40.5465C163.938 40.7747 161.957 41.079 160.281 41.079C159.9 40.6225 159.519 39.9379 159.061 39.1772L158.909 38.949L158.68 38.5686H157.766L157.614 38.6447C154.108 40.6986 152.432 41.079 150.679 41.079C148.774 41.079 145.802 39.1772 145.802 36.3625C145.802 33.5478 148.545 29.5921 154.642 29.5921H158.985V28.8314C159.138 24.7235 158.604 22.2892 157.309 20.9199C156.547 20.0831 155.48 19.7028 154.108 19.7028C151.67 19.7028 149.46 21.5285 148.164 23.0499C147.936 22.7456 147.631 22.4413 147.402 22.1371C149.307 20.0831 151.898 17.9531 155.327 17.9531ZM152.584 39.6336C154.413 39.6336 156.775 38.7207 158.604 37.2754C159.061 36.9711 159.061 36.5146 159.061 36.1343V30.7332L158.528 30.581C158.071 30.4289 156.471 30.4289 155.556 30.4289C152.203 30.4289 148.545 31.7982 148.545 35.7539V35.83C148.469 38.0361 150.222 39.6336 152.584 39.6336ZM155.327 17.1924C151.365 17.1924 148.545 19.7028 146.412 22.1371C146.945 22.8217 147.555 23.5824 148.088 24.2671C149.765 22.2131 151.975 20.5395 154.108 20.5395C157.233 20.5395 158.452 22.8978 158.223 28.9075H154.642C148.088 28.9075 145.04 33.3196 145.04 36.4386C145.04 39.6336 148.241 41.9158 150.679 41.9158C152.508 41.9158 154.261 41.5354 157.995 39.4054H158.223C158.833 40.5465 159.366 41.4593 159.9 41.9158C162.11 41.9158 164.929 41.3832 165.615 41.155V38.7207L162.262 38.7968C161.957 38.7968 161.805 38.4925 161.805 37.96C161.881 35.6018 161.881 28.9075 161.881 26.1689C162.033 20.007 159.061 17.1924 155.327 17.1924ZM152.584 38.8729C150.603 38.8729 149.231 37.6557 149.231 35.9061V35.83C149.231 33.3196 151.06 31.2657 155.48 31.2657C157.004 31.2657 157.995 31.3418 158.299 31.4178V36.2104C158.299 36.5146 158.299 36.5907 158.147 36.7429C156.242 38.1122 154.032 38.8729 152.584 38.8729Z" fill="#9CA09E"/>
<path fill-rule="evenodd" clip-rule="evenodd" d="M174.988 41.4595C172.473 41.4595 170.416 41.0031 169.349 40.5467C169.197 39.3295 169.044 38.1884 168.968 36.9713C168.892 36.2106 168.815 35.3738 168.663 34.6131C169.273 34.4609 169.882 34.3088 170.492 34.2327L171.102 37.5799V37.6559C171.178 37.9602 171.254 38.1884 171.635 38.4927C172.321 39.1013 173.769 39.7099 175.293 39.7099C176.893 39.7099 178.189 39.5577 179.255 38.7209C180.322 37.8842 180.779 36.7431 180.779 35.2977C180.779 32.3309 179.179 31.7984 175.598 30.5813L174.836 30.353C170.949 29.0598 169.425 27.3862 169.425 24.4194C169.425 21.2244 171.711 19.5508 172.397 19.0944C173.845 18.1815 175.75 17.7251 178.112 17.7251C180.551 17.7251 182.075 18.2576 182.608 18.5619C182.761 20.3876 182.989 22.2894 183.142 24.1912C182.837 24.2673 181.618 24.4194 181.313 24.4955L180.703 21.3005C180.627 20.9962 180.475 20.6158 180.246 20.4637C179.56 19.8551 178.417 19.5508 177.045 19.5508C175.75 19.5508 174.531 20.0073 173.693 20.6919C172.778 21.4526 172.321 22.5176 172.321 23.8869C172.321 26.3973 173.54 26.9298 177.503 28.2991C181.084 29.4402 183.599 30.5812 183.599 34.6891C183.599 37.0474 182.532 39.0252 180.551 40.3185C179.56 40.927 177.503 41.4595 174.988 41.4595Z" fill="#9CA09E"/>
<path d="M178.265 17.9531C180.398 17.9531 181.846 18.4095 182.456 18.6377C182.608 20.2353 182.761 21.9849 182.913 23.6585C182.761 23.6585 182.532 23.7346 182.38 23.7346C182.151 23.7346 181.999 23.8106 181.77 23.8106L181.237 20.996C181.16 20.5395 180.932 20.1592 180.627 19.931C179.865 19.2463 178.646 18.942 177.198 18.942C175.826 18.942 174.531 19.3985 173.616 20.1592C172.626 20.996 172.092 22.1371 172.092 23.6585C172.092 26.5492 173.769 27.1578 177.579 28.451C181.084 29.5921 183.446 30.6571 183.446 34.4607C183.446 36.6668 182.456 38.4925 180.551 39.7857C179.408 40.6225 177.426 41.079 174.988 41.079C172.702 41.079 170.797 40.6225 169.73 40.2422C169.577 39.1011 169.501 38.0361 169.349 36.895L169.12 34.8411L170.263 34.6129L170.797 37.5036V37.6557C170.873 37.96 171.025 38.2643 171.483 38.6447C172.245 39.3293 173.769 40.014 175.445 40.014C176.893 40.014 178.417 39.8618 179.636 38.949C180.779 38.0361 181.313 36.7429 181.313 35.2214C181.313 32.0264 179.484 31.3418 175.902 30.1246L175.14 29.8964C171.406 28.6792 170.035 27.1578 170.035 24.3431C170.035 21.3003 172.168 19.7028 172.854 19.3224C174.15 18.4095 176.055 17.9531 178.265 17.9531ZM178.265 17.1924C175.826 17.1924 173.845 17.7249 172.321 18.6377C170.721 19.6267 169.196 21.6046 169.196 24.2671C169.196 27.386 170.797 29.2117 174.835 30.505C178.95 31.9503 180.475 32.3307 180.475 35.1454C180.475 36.7429 179.789 37.6557 179.103 38.2643C178.036 39.025 176.741 39.1772 175.369 39.1772C173.997 39.1772 172.626 38.6447 171.94 38.0361C171.635 37.8079 171.559 37.6557 171.483 37.3514L170.797 33.7C169.958 33.7761 169.044 34.0043 168.206 34.2325C168.434 36.4386 168.739 38.5686 168.968 40.6986C170.035 41.2311 172.245 41.7636 174.988 41.7636C177.426 41.7636 179.712 41.3072 181.008 40.3943C183.142 39.025 184.208 36.895 184.208 34.4607C184.208 30.1246 181.389 28.9075 177.807 27.7664C173.845 26.3971 172.854 25.9407 172.854 23.7346C172.854 22.2892 173.388 21.3763 174.073 20.8438C174.759 20.2353 175.902 19.7788 177.198 19.7788C178.417 19.7788 179.484 20.0831 180.17 20.6156C180.322 20.6917 180.475 20.9199 180.551 21.2242L181.237 24.7235C182.075 24.5714 183.065 24.4192 183.827 24.3431C183.675 22.2892 183.446 20.1592 183.294 18.1813C182.684 17.877 180.932 17.1924 178.265 17.1924Z" fill="#9CA09E"/>
<path fill-rule="evenodd" clip-rule="evenodd" d="M196.477 41.3835C195.334 41.3835 194.115 41.2313 192.896 40.0142C191.753 38.797 191.676 37.6559 191.676 35.9063V30.2009V27.2341V23.7348V20.4637H188.247C188.247 19.9312 188.247 19.2465 188.324 18.4858C189.238 18.4858 190.229 18.4097 191.143 18.4097C191.448 18.4097 191.829 18.0294 191.829 17.649C191.905 16.1276 191.905 14.2258 191.981 12.6283C192.972 11.9436 194.267 11.259 194.877 11.0308C194.801 12.9326 194.801 15.7472 194.801 17.9533V18.3337H195.182C197.62 18.3337 200.211 18.3337 202.65 18.2576C202.65 18.7901 202.574 19.3226 202.574 19.8551V20.3876H194.801V27.0819C194.725 29.3641 194.725 32.5591 194.725 35.3738C194.725 37.6559 196.172 39.1774 198.382 39.1774C199.449 39.1774 201.202 38.8731 202.878 38.4167C202.955 38.9492 203.031 39.5577 203.107 40.1663C200.821 41.0031 198.154 41.3835 196.477 41.3835Z" fill="#9CA09E"/>
<path d="M194.572 11.563C194.496 13.4648 194.496 15.8991 194.496 17.953V18.7137H195.258C197.62 18.7137 199.983 18.7137 202.345 18.6376C202.345 19.018 202.269 19.4744 202.269 19.8548V20.0069H194.42V27.0816C194.343 29.3638 194.343 32.5588 194.343 35.3735C194.343 37.8838 195.944 39.5574 198.382 39.5574C199.373 39.5574 200.973 39.3292 202.573 38.8728C202.65 39.1771 202.65 39.5574 202.726 39.8617C200.592 40.6224 198.154 41.0028 196.553 41.0028H196.477C195.41 41.0028 194.343 40.8506 193.2 39.7856C192.134 38.6446 192.057 37.6556 192.057 35.982V30.2767V27.3098V23.8105V20.083H188.628C188.628 19.7027 188.628 19.3223 188.704 18.8659C189.543 18.8659 190.381 18.7898 191.219 18.7898C191.753 18.7898 192.286 18.2573 192.286 17.6487C192.362 16.1273 192.362 14.3015 192.438 12.7801C193.124 12.3237 193.962 11.8672 194.572 11.563ZM195.182 10.4219C195.029 10.4219 192.972 11.4108 191.6 12.3237C191.6 13.9212 191.524 15.9751 191.448 17.5726C191.448 17.8009 191.219 17.953 191.143 17.953C190.076 18.0291 189.009 18.0291 187.942 18.0291C187.866 18.8659 187.866 19.8548 187.866 20.7677H191.295C191.295 22.137 191.219 25.5602 191.219 27.2338C191.219 28.6031 191.143 33.0913 191.143 35.906C191.143 37.6556 191.219 38.9488 192.515 40.2421C193.886 41.6114 195.334 41.6874 196.325 41.6874H196.401C198.23 41.6874 201.049 41.231 203.412 40.3181C203.335 39.4814 203.183 38.5685 203.031 37.8838C201.278 38.4163 199.373 38.7206 198.23 38.7206C196.477 38.7206 194.953 37.6556 194.953 35.2974C194.953 32.5588 194.953 29.2877 195.029 27.0056V20.7677H202.802C202.878 19.8548 202.954 18.8659 202.954 17.8769C200.44 17.953 197.696 17.953 195.106 17.953C195.106 15.5948 195.182 12.5519 195.182 10.6501C195.334 10.4979 195.334 10.4219 195.182 10.4219Z" fill="#9CA09E"/>
<path fill-rule="evenodd" clip-rule="evenodd" d="M220.481 40.8507V39.6335V39.1771L223.072 39.025C223.377 39.025 223.606 38.7207 223.606 38.4164V28.2227C223.606 25.4081 223.605 23.5824 222.767 22.137C222.081 20.8438 220.862 20.1591 219.262 20.1591C216.976 20.1591 214.156 21.8327 212.175 23.3542L212.023 23.4302V23.5824C211.946 28.1467 211.946 34.4607 211.946 38.5685V38.9489L215.833 39.101V40.7746H206.079V39.025L208.593 38.8728C208.898 38.8728 209.127 38.6446 209.127 38.2642C209.203 28.451 209.203 15.2145 209.203 5.62939V5.24903L205.393 5.17296V3.49938C206.46 3.34724 208.136 3.04295 209.66 2.73866C210.651 2.51044 211.794 2.3583 212.327 2.28223C212.327 5.78153 212.251 10.0416 212.251 14.1494C212.251 16.2795 212.175 18.3334 212.175 20.3873V20.6916L212.785 20.8438L212.937 20.7677C218.271 17.4966 219.262 17.4966 220.938 17.4966C222.92 17.4966 224.901 18.942 226.12 21.3002C226.577 22.2131 226.806 23.5063 226.806 25.332C226.806 29.2117 226.73 33.5478 226.73 37.7317V39.025L230.007 39.1771V40.8507H220.481Z" fill="#9CA09E"/>
<path d="M211.87 2.81482C211.87 6.23805 211.794 10.2699 211.794 14.1495C211.794 16.2795 211.718 18.4096 211.718 20.4635V21.0721L212.251 21.2242L212.48 21.3003L212.785 21.3764L213.09 21.2242C218.348 17.9531 219.262 17.9531 220.862 17.9531C223.606 17.9531 225.282 20.6917 225.739 21.5285C226.196 22.4414 226.349 23.6585 226.349 25.4082C226.349 29.2878 226.273 33.5479 226.273 37.7318V39.4815H227.035L229.626 39.5576V40.5465H221.015V39.7097V39.5576L223.225 39.4054C223.758 39.4054 224.139 38.949 224.139 38.4165V28.2228C224.139 25.3321 224.139 23.5064 223.301 21.9849C222.539 20.5396 221.243 19.7789 219.491 19.7789C217.128 19.7789 214.156 21.4524 212.175 23.0499L211.87 23.2782V23.6585C211.794 30.2007 211.794 35.4497 211.794 38.6447V39.4054H212.556L215.68 39.4815V40.4704H206.688V39.4815L208.822 39.3293C209.356 39.3293 209.737 38.8729 209.737 38.3404C209.813 28.5271 209.813 15.2906 209.813 5.70555V4.94483H209.051L206.003 4.86876V3.9559C207.069 3.80375 208.594 3.49946 209.965 3.19518C210.422 3.1191 211.261 2.96696 211.87 2.81482ZM212.48 1.97803C212.099 1.97803 206.917 3.04303 205.012 3.34732C204.936 4.03197 204.936 4.94483 204.936 5.70555L208.746 5.78162C208.746 15.5949 208.746 28.6793 208.67 38.4165C208.67 38.4925 208.594 38.6447 208.517 38.6447L205.698 38.7968C205.622 39.5576 205.622 40.3943 205.622 41.2311C207.146 41.2311 209.051 41.1551 210.422 41.1551H216.138C216.138 40.3943 216.214 39.4815 216.214 38.7208L212.328 38.5686C212.328 34.3847 212.404 27.9946 212.404 23.5825C214.461 21.9849 217.205 20.4635 219.262 20.4635C220.176 20.4635 221.548 20.6917 222.386 22.2892C223.148 23.6585 223.148 25.4082 223.148 28.1468V38.3404C223.148 38.4165 223.072 38.5686 222.92 38.5686L219.948 38.7208C219.948 39.5576 219.872 40.3943 219.948 41.1551C221.472 41.1551 223.377 41.079 224.977 41.079H230.083C230.159 40.3183 230.159 39.4054 230.159 38.6447L226.882 38.4925C226.959 34.1564 226.959 29.44 226.959 25.18C226.959 23.5824 226.806 22.1371 226.273 20.996C225.206 18.9421 223.225 17.0403 220.71 17.0403C218.881 17.0403 217.814 17.1163 212.556 20.3874L212.328 20.3114C212.404 14.1495 212.48 7.30306 212.48 2.0541C212.632 2.0541 212.556 1.97803 212.48 1.97803Z" fill="#9CA09E"/>
<path fill-rule="evenodd" clip-rule="evenodd" d="M243.495 41.4593C237.551 41.4593 233.817 37.2754 233.817 30.5811C233.817 23.0499 238.16 17.5728 244.028 17.5728C246.39 17.5728 248.295 18.4856 249.591 20.2353C250.81 21.9089 251.42 24.3432 251.42 27.31C251.115 27.9946 250.353 28.9835 250.048 29.0596C247.229 29.1357 240.827 29.2118 237.398 29.2118H237.017V29.5921C236.941 32.7111 237.551 35.1454 238.77 36.7429C240.294 38.7968 241.971 39.1772 244.18 39.1772C245.933 39.1772 247.991 38.6447 250.581 37.5036C250.734 38.0361 250.886 38.7207 250.962 39.3293C248.448 40.6225 245.628 41.4593 243.495 41.4593ZM243.418 19.3985C241.742 19.3985 240.446 20.0071 239.456 21.3003C238.846 22.061 237.398 23.9628 237.246 26.9296V27.31H237.627C240.37 27.31 244.409 27.2339 247.381 27.1578C247.991 27.1578 248.372 26.7775 248.372 26.1689C248.372 24.3432 247.838 22.4414 246.924 21.2242C246.085 20.0071 244.942 19.3985 243.418 19.3985Z" fill="#9CA09E"/>
<path d="M244.028 17.9531C246.314 17.9531 248.067 18.866 249.286 20.4635C250.429 22.061 251.039 24.4192 251.039 27.2339C250.81 27.7664 250.2 28.451 249.972 28.6792C247.076 28.7553 240.751 28.8314 237.475 28.8314H236.713V29.5921C236.636 32.8632 237.246 35.2975 238.541 36.9711C240.142 39.1011 242.047 39.5575 244.257 39.5575C245.933 39.5575 247.991 39.025 250.429 38.0361C250.505 38.4164 250.582 38.7207 250.658 39.1011C248.295 40.3182 245.552 41.079 243.571 41.079C237.856 41.079 234.274 37.0472 234.274 30.581V30.505C234.198 23.2021 238.313 17.9531 244.028 17.9531ZM236.865 27.7664H237.703C240.446 27.7664 244.485 27.6903 247.457 27.6142C248.295 27.6142 248.829 27.0817 248.829 26.2449C248.829 24.3431 248.295 22.3653 247.305 21.072C246.314 19.7788 245.019 19.0942 243.495 19.0942H243.418C241.59 19.0942 240.218 19.7788 239.151 21.1481C238.541 21.9849 237.094 23.8867 236.865 27.0057V27.7664ZM244.028 17.1924C237.627 17.1924 233.436 23.2781 233.436 30.505V30.581C233.436 37.0472 237.017 41.8397 243.495 41.8397C245.628 41.8397 248.676 41.0029 251.42 39.4815C251.344 38.7207 251.115 37.7318 250.886 36.9711C249.134 37.7318 246.543 38.7968 244.257 38.7968C242.199 38.7968 240.599 38.4925 239.151 36.5146C238.008 34.9932 237.475 32.7111 237.475 29.5921C240.599 29.5921 247.229 29.516 250.124 29.44C250.658 29.3639 251.572 28.0707 251.801 27.386C251.801 24.8756 251.344 22.1371 249.896 20.0831C248.6 18.2574 246.619 17.1924 244.028 17.1924ZM237.627 27.0057C237.779 24.1149 239.075 22.4413 239.761 21.5285C240.599 20.4635 241.742 19.7788 243.418 19.7788H243.495C244.942 19.7788 245.933 20.4635 246.695 21.4524C247.457 22.4413 248.067 24.2671 248.067 26.1689C248.067 26.6253 247.838 26.7774 247.457 26.7774C244.485 26.9296 240.446 27.0057 237.627 27.0057Z" fill="#9CA09E"/>
<path fill-rule="evenodd" clip-rule="evenodd" d="M263.841 41.3835C262.698 41.3835 261.478 41.2313 260.259 40.0142C259.116 38.797 259.04 37.6559 259.04 35.9063V30.2009V27.2341V23.7348V20.4637H255.611C255.611 19.779 255.687 19.0944 255.687 18.4858C256.601 18.4858 257.592 18.4097 258.507 18.4097C258.811 18.4097 259.192 18.0294 259.192 17.649V17.2687C259.269 15.8233 259.269 14.0736 259.345 12.6283C260.335 11.9436 261.631 11.259 262.241 11.0308C262.241 12.324 262.164 15.4429 262.164 17.9533V18.3337H262.545C264.984 18.3337 267.575 18.3337 270.013 18.2576C270.013 18.9422 269.937 19.5508 269.937 20.1594V20.3876H262.164V27.0059C262.088 29.288 262.088 32.483 262.088 35.2977C262.088 37.5799 263.536 39.1013 265.746 39.1013C266.813 39.1013 268.565 38.797 270.242 38.3406C270.318 38.8731 270.394 39.4817 270.47 40.0902C268.184 41.0031 265.593 41.3835 263.841 41.3835Z" fill="#9CA09E"/>
<path d="M262.012 11.563C262.012 13.0844 261.936 15.7469 261.936 17.953V18.7137H262.698C265.06 18.7137 267.422 18.7137 269.709 18.6376C269.709 19.0941 269.632 19.5505 269.632 20.0069H261.783V27.0056C261.707 29.2877 261.707 32.4827 261.707 35.2974C261.707 37.8078 263.307 39.4814 265.746 39.4814C266.737 39.4814 268.337 39.2531 269.937 38.7967C270.013 39.101 270.013 39.4814 270.09 39.7856C267.956 40.5464 265.517 40.9267 263.917 40.9267H263.841C262.774 40.9267 261.707 40.7746 260.564 39.7096C259.497 38.5685 259.421 37.5796 259.421 35.8299V30.1245V27.1577V23.6584V19.9309H255.992C255.992 19.5505 255.992 19.0941 256.068 18.7137C256.83 18.7137 257.668 18.6376 258.583 18.6376C259.116 18.6376 259.65 18.1051 259.65 17.4966V17.3444C259.726 15.8991 259.726 14.1494 259.802 12.704C260.488 12.3237 261.402 11.8672 262.012 11.563ZM262.622 10.4219C262.469 10.4219 260.412 11.4108 259.116 12.3237C259.04 13.9212 259.04 15.9751 258.964 17.5726C258.964 17.8009 258.735 17.953 258.659 17.953C257.592 18.0291 256.525 18.0291 255.459 18.0291C255.459 18.8659 255.382 19.8548 255.382 20.7677H258.811C258.811 22.137 258.735 25.5602 258.735 27.2338C258.735 28.6031 258.659 33.0913 258.659 35.906C258.659 37.6556 258.735 38.9488 260.031 40.2421C261.402 41.6114 262.85 41.6874 263.841 41.6874H263.917C265.746 41.6874 268.565 41.231 270.928 40.3181C270.852 39.4814 270.699 38.5685 270.547 37.8838C268.794 38.4163 266.889 38.7206 265.746 38.7206C263.993 38.7206 262.469 37.6556 262.469 35.2974C262.469 32.5588 262.469 29.2877 262.545 27.0056V20.7677H270.318C270.394 19.8548 270.471 18.8659 270.471 17.8769C267.956 17.953 265.213 17.953 262.622 17.953C262.622 15.5948 262.698 12.5519 262.698 10.6501C262.774 10.4979 262.698 10.4219 262.622 10.4219Z" fill="#9CA09E"/>
<path fill-rule="evenodd" clip-rule="evenodd" d="M273.747 39.1774L276.719 39.0253C277.024 39.0253 277.253 38.7971 277.253 38.4167V20.6919L273.442 20.6159V18.9423C274.585 18.7901 276.186 18.4098 277.634 18.1816C278.7 17.9534 279.843 17.7251 280.377 17.6491C280.377 20.768 280.377 24.4955 280.301 28.2231C280.301 32.0267 280.224 35.7542 280.224 38.6449V39.0253L283.73 39.1774V40.851H273.747V39.1774ZM278.396 11.4112C277.1 11.4112 276.109 10.2701 276.109 8.82473C276.109 7.60758 276.872 6.23828 278.548 6.23828C280.301 6.23828 280.682 7.83579 280.682 8.74865C280.682 10.2701 279.767 11.4112 278.396 11.4112Z" fill="#9CA09E"/>
<path d="M278.548 6.61863C280.225 6.61863 280.301 8.52043 280.301 8.74864C280.301 10.1179 279.539 11.0308 278.396 11.0308C277.329 11.0308 276.491 10.0419 276.491 8.82472C276.491 7.75971 277.1 6.61863 278.548 6.61863ZM279.996 18.0294C279.996 20.9962 279.996 24.6477 279.92 28.147C279.92 31.8745 279.844 35.6781 279.844 38.5688V39.3296H280.606L283.349 39.4817V40.3946H274.052V39.4056L276.643 39.2535C277.176 39.2535 277.557 38.7971 277.557 38.2646V20.3116H276.795L273.671 20.2355V19.2466C274.738 19.0944 276.262 18.7901 277.557 18.4859C278.472 18.3337 279.386 18.1816 279.996 18.0294ZM278.548 5.85791C276.719 5.85791 275.729 7.30328 275.729 8.82472C275.729 10.4222 276.872 11.7915 278.396 11.7915C279.92 11.7915 281.063 10.4983 281.063 8.74864C281.063 7.53149 280.453 5.85791 278.548 5.85791ZM280.606 17.1926C280.225 17.1926 275.195 18.2576 273.061 18.5619V20.9202L276.872 20.9962V38.3406C276.872 38.4167 276.872 38.5688 276.719 38.5688L273.366 38.721V41.1553C275.043 41.1553 276.872 41.0792 278.548 41.0792H284.111C284.187 40.3185 284.187 39.4817 284.187 38.6449L280.682 38.4928C280.682 32.5592 280.758 23.3545 280.758 17.1926H280.606Z" fill="#9CA09E"/>
<path fill-rule="evenodd" clip-rule="evenodd" d="M296.151 41.4593C290.131 41.4593 287.388 35.9822 287.388 30.9614C287.388 23.0499 292.188 17.5728 299.047 17.5728C300.876 17.5728 302.4 18.0292 303.238 18.5617C303.085 19.3224 302.4 20.8438 301.942 21.3763C301.942 21.3763 301.866 21.3763 301.866 21.3003C301.028 20.9199 299.351 20.0071 297.523 20.0071C295.541 20.0071 294.093 20.6917 292.95 22.2131C292.112 23.2781 290.588 25.7885 290.588 29.8203C290.588 33.0154 291.122 35.1454 292.493 36.9711C293.56 38.4165 295.237 39.1772 297.294 39.1772C299.123 39.1772 301.561 38.4165 303.238 37.6557C303.39 38.1882 303.466 38.7968 303.619 39.4054C301.18 40.6225 298.285 41.4593 296.151 41.4593Z" fill="#9CA09E"/>
<path d="M299.047 17.9531C300.799 17.9531 302.095 18.4095 302.781 18.7138C302.628 19.3224 302.171 20.3113 301.866 20.8438C300.952 20.3874 299.351 19.6267 297.523 19.6267C295.465 19.6267 293.865 20.3874 292.646 21.9849C291.731 23.126 290.207 25.6364 290.207 29.8203C290.207 33.1675 290.817 35.2975 292.188 37.1232C293.331 38.6447 295.16 39.4815 297.294 39.4815C299.047 39.4815 301.257 38.7968 302.933 38.1122C303.009 38.4164 303.085 38.7968 303.162 39.1011C300.876 40.2422 298.132 41.0029 296.075 41.0029C291.884 41.0029 287.692 37.8839 287.692 30.8853V30.8093C287.769 23.2781 292.417 17.9531 299.047 17.9531ZM299.047 17.1924C291.96 17.1924 287.007 22.8978 287.007 30.8853V30.9614C287.007 38.0361 291.274 41.8397 296.151 41.8397C298.285 41.8397 301.409 41.079 304.076 39.6336C303.924 38.8729 303.695 37.8839 303.543 37.1232C301.866 37.8839 299.275 38.7968 297.37 38.7968C295.846 38.7968 294.093 38.3404 292.874 36.7429C291.655 35.0693 291.045 33.0153 291.045 29.8203C291.045 26.321 292.188 23.8867 293.255 22.5174C294.322 21.1481 295.618 20.4635 297.523 20.4635C299.58 20.4635 301.485 21.6806 302.019 21.8328C302.628 21.3763 303.619 19.1703 303.619 18.3335C302.933 17.801 301.257 17.1924 299.047 17.1924Z" fill="#9CA09E"/>
<path fill-rule="evenodd" clip-rule="evenodd" d="M313.601 41.4594C311.087 41.4594 309.029 41.003 307.962 40.5466C307.886 39.5576 307.734 38.4926 307.581 37.5037C307.505 36.5148 307.353 35.6019 307.277 34.613C307.886 34.4608 308.496 34.3087 309.182 34.2326L309.791 37.5037L309.868 37.6558C309.944 37.8841 310.02 38.1883 310.401 38.4166C311.087 39.0251 312.458 39.6337 314.059 39.6337C315.659 39.6337 316.954 39.4816 318.021 38.6448C319.088 37.808 319.545 36.6669 319.545 35.2215C319.545 32.2547 318.021 31.7222 314.363 30.5051L313.678 30.2769C309.791 28.9836 308.267 27.3101 308.267 24.3433C308.267 21.1482 310.553 19.4747 311.239 19.0182C312.687 18.1054 314.592 17.6489 316.954 17.6489C319.393 17.6489 320.917 18.1814 321.45 18.4857C321.603 20.1593 321.831 22.1372 321.984 24.115C321.679 24.1911 320.46 24.3433 320.155 24.4193L319.545 21.2243C319.469 20.8439 319.317 20.5397 319.012 20.3875C318.326 19.7789 317.183 19.4747 315.811 19.4747C314.516 19.4747 313.297 19.9311 312.458 20.6157C311.544 21.3765 311.087 22.4415 311.087 23.8108C311.087 26.3211 312.306 26.8536 316.269 28.2229C319.85 29.364 322.365 30.5812 322.365 34.613C322.365 36.9712 321.298 38.873 319.317 40.2423C318.25 40.9269 316.116 41.4594 313.601 41.4594Z" fill="#9CA09E"/>
<path d="M316.954 17.9531C319.088 17.9531 320.536 18.4095 321.146 18.7138C321.298 20.2353 321.45 21.9849 321.603 23.7346C321.45 23.7346 321.298 23.8106 321.069 23.8106C320.841 23.8106 320.688 23.8867 320.46 23.8867L319.926 21.072C319.85 20.6156 319.622 20.2353 319.317 20.007C318.555 19.3224 317.335 19.0181 315.888 19.0181C314.516 19.0181 313.22 19.4745 312.306 20.2353C311.315 21.0721 310.782 22.2131 310.782 23.7346C310.782 26.6253 312.458 27.2339 316.269 28.5271C319.774 29.6682 322.136 30.7332 322.136 34.5368C322.136 36.7429 321.146 38.5686 319.241 39.8618C318.097 40.6986 316.116 41.155 313.678 41.155C311.392 41.155 309.487 40.6986 308.42 40.3182C308.343 39.4054 308.191 38.4165 308.115 37.5036C308.039 36.6668 307.886 35.83 307.81 34.9932L308.953 34.765L309.487 37.6557V37.8839C309.563 38.1882 309.715 38.4925 310.172 38.7968C310.934 39.4815 312.458 40.1661 314.059 40.1661C315.43 40.1661 316.954 40.09 318.25 39.1011C319.393 38.1882 319.926 36.895 319.926 35.3736C319.926 32.1786 318.097 31.4939 314.516 30.2768L313.754 30.0485C310.02 28.8314 308.648 27.31 308.648 24.4953C308.648 21.4524 310.782 19.8549 311.468 19.4745C312.839 18.4095 314.668 17.9531 316.954 17.9531ZM316.954 17.1924C314.516 17.1924 312.535 17.7249 311.011 18.6377C309.41 19.6267 307.886 21.6046 307.886 24.2671C307.886 27.386 309.487 29.2117 313.525 30.505C317.64 31.9503 319.164 32.3307 319.164 35.1454C319.164 36.7429 318.478 37.6557 317.793 38.2643C316.726 39.025 315.43 39.1772 314.059 39.1772C312.687 39.1772 311.315 38.6447 310.63 38.0361C310.325 37.8079 310.249 37.6557 310.172 37.3514L309.563 33.7C308.724 33.7761 307.81 34.0043 306.972 34.2325C307.2 36.4386 307.505 38.5686 307.734 40.6986C308.877 41.2311 311.011 41.7636 313.754 41.7636C316.192 41.7636 318.402 41.3072 319.774 40.3943C321.908 39.025 322.974 36.895 322.974 34.4607C322.974 30.1246 320.155 28.9075 316.573 27.7664C312.611 26.3971 311.62 25.9407 311.62 23.7346C311.62 22.2892 312.154 21.3763 312.839 20.8438C313.525 20.2353 314.668 19.7788 315.964 19.7788C317.183 19.7788 318.25 20.0831 318.936 20.6156C319.088 20.6917 319.241 20.9199 319.317 21.2242L320.003 24.7235C320.841 24.5714 321.831 24.4192 322.517 24.3431C322.365 22.2892 322.136 20.1592 321.984 18.1813C321.374 17.877 319.622 17.1924 316.954 17.1924Z" fill="#9CA09E"/>
<path fill-rule="evenodd" clip-rule="evenodd" d="M40.1083 0H35.8409C37.365 2.20609 40.6417 7.53112 40.9465 14.9101C41.5561 28.2227 29.135 39.2531 29.135 39.2531C29.135 39.2531 37.2887 27.9945 35.1551 15.2905C33.8596 7.37898 28.2968 1.97787 26.3917 0.304289C27.992 2.66252 30.9639 7.91148 31.3449 14.9862C32.0307 28.2988 19.6096 39.2531 19.6096 39.2531C19.6096 39.2531 27.8396 27.9945 25.7059 15.2905C24.3342 6.99862 18.238 1.3693 16.7139 0.0760737H13.3609L0.0253906 23.1259L13.3609 46.2517H40.0321L53.3676 23.1259L40.1083 0Z" fill="#9CA09E"/>
</g>
<defs>
<clipPath id="clip0_29_168">
<rect width="323" height="55" fill="white"/>
</clipPath>
</defs>
</svg>
