<svg width="177" height="55" viewBox="0 0 177 55" fill="none" xmlns="http://www.w3.org/2000/svg">
<path d="M11.2047 53.0782C10.2403 54.4052 8.95441 54.9085 7.4389 54.9085C4.36195 54.9085 2.20349 52.6664 2.20349 49.6007C2.20349 46.5349 4.36195 44.2928 7.4389 44.2928C8.81663 44.2928 10.0566 44.7504 10.9292 45.8943L10.1484 46.5349C9.5055 45.574 8.44924 45.1622 7.4389 45.1622C4.77527 45.1622 3.16791 47.084 3.16791 49.6007C3.16791 52.1173 4.82119 54.0391 7.4389 54.0391C8.44924 54.0391 9.6892 53.5358 10.424 52.4834L11.2047 53.0782ZM28.6101 44.3386C31.6871 44.3386 33.8455 46.5807 33.8455 49.6464C33.8455 52.7121 31.6871 54.9542 28.6101 54.9542C25.5332 54.9542 23.3747 52.7121 23.3747 49.6464C23.4207 46.5349 25.5332 44.3386 28.6101 44.3386ZM28.6101 54.0391C31.2738 54.0391 32.8811 52.1173 32.8811 49.6007C32.8811 47.084 31.2278 45.1622 28.6101 45.1622C25.9465 45.1622 24.3392 47.084 24.3392 49.6007C24.3392 52.1173 25.9924 54.0391 28.6101 54.0391ZM47.0259 44.5674H48.4496L52.1235 53.0324L55.7975 44.5674H57.1293V54.6339H56.1649V45.7571H56.119L52.2613 54.6339H51.8939L47.9903 45.7571H47.9444V54.6339H46.98V44.5674H47.0259ZM70.9526 44.5674H73.8459C75.2696 44.5674 77.1065 45.1165 77.1065 47.2213C77.1065 49.0516 75.6369 49.8752 74.0755 49.8752H71.8711V54.6797H70.9067V44.5674H70.9526ZM71.9171 49.0058H74.0755C75.1318 49.0058 76.234 48.5483 76.234 47.2213C76.234 45.9401 75.1318 45.391 74.0296 45.391H71.963L71.9171 49.0058ZM92.3535 44.5674H93.3179L97.5889 54.6339H96.5327L95.4304 51.98H90.0573L88.9092 54.6339H87.9447L92.3535 44.5674ZM92.8128 45.6198L90.4706 51.1564H95.109L92.8128 45.6198ZM110.218 44.5674H111.412L117.566 53.3985H117.612V44.5674H118.576V54.6339H117.382L111.183 45.8486H111.137V54.6797H110.218V44.5674ZM132.446 44.5674H133.41V54.6339H132.446V44.5674ZM147.325 44.5674H153.525V45.4368H148.29V49.0058H153.204V49.8752H148.29V53.8103H153.755V54.6797H147.325V44.5674ZM167.211 52.8037C167.716 53.6273 168.542 54.0849 169.507 54.0849C170.793 54.0849 171.757 53.307 171.757 52.1173C171.757 49.2804 166.522 50.9276 166.522 47.1298C166.522 45.3453 168.083 44.3844 169.782 44.3844C170.885 44.3844 171.849 44.7504 172.538 45.6656L171.711 46.2604C171.252 45.6198 170.609 45.2537 169.736 45.2537C168.542 45.2537 167.486 45.8943 167.486 47.1755C167.486 50.1955 172.722 48.3652 172.722 52.1631C172.722 53.9933 171.206 55 169.599 55C168.267 55 167.119 54.5882 166.292 53.49L167.211 52.8037ZM106.82 36.0108L107.692 36.1023L108.795 27.9118L108.06 27.683C106.82 27.2712 105.626 26.4018 104.845 25.2121C103.651 23.4276 103.192 21.1398 103.513 18.3943C103.835 15.4201 104.799 12.995 106.361 11.1647C107.463 9.88353 108.886 9.0599 110.586 8.78536L111.229 8.64809L112.239 0.137271L111.091 0.274543C107.233 0.777871 103.513 2.5624 100.987 5.12479C97.6808 8.46506 95.7519 12.812 95.2008 17.9368C94.6497 23.1073 95.6601 27.5 98.14 30.886C100.528 34.089 103.1 35.599 106.82 36.0108ZM62.3188 26.7221H53.7768L56.5782 0.411814H48.5414L44.8215 35.782H61.3544L62.3188 26.7221ZM76.6473 36.2396C78.9894 36.2396 81.3775 35.599 83.8115 34.3636C86.2455 33.1281 88.3121 31.1148 89.9654 28.4151C91.6187 25.7612 92.5831 23.1988 92.8587 20.8652L93.4098 15.7862H78.2087L77.5658 23.7022H83.9034C83.1686 24.9376 82.296 25.8985 81.4694 26.4018C80.3672 27.0882 79.2191 27.4085 78.1169 27.4085C76.0503 27.4085 74.4429 26.5391 73.157 24.8003C71.8252 22.9701 71.32 20.7737 71.5956 18.1198C71.8711 15.6032 72.8355 13.4526 74.5807 11.5765C76.2799 9.74626 78.1169 8.87687 80.1376 8.87687C81.3316 8.87687 82.4338 9.24293 83.4901 9.97504C84.5004 10.7072 84.9596 11.302 85.9241 13.1323L86.4752 14.1389L92.5372 8.87687L92.2617 8.28203C89.9195 2.79118 85.97 0 80.505 0C76.2799 0 72.4681 1.78453 69.1157 5.26206C65.8091 8.69384 63.8802 12.9493 63.3751 17.7995C62.824 22.9243 63.8343 27.317 66.3602 30.8403C68.886 34.4093 72.3763 36.2396 76.6473 36.2396ZM40.7342 35.782L44.4541 0.411814H36.3714L32.6515 35.782H40.7342ZM116.602 11.0732C117.75 12.7662 118.163 15.0998 117.842 17.9825C117.52 20.9567 116.556 23.3361 115.04 25.1206C113.571 26.7679 112.331 27.6373 110.999 27.8661L110.356 28.0033L109.346 36.1938L110.494 36.0566C114.26 35.6905 117.658 33.9975 120.551 30.9775C123.812 27.5915 125.741 23.2904 126.246 18.2113C126.797 13.0408 125.741 8.69384 123.169 5.26206C121.194 2.69967 118.393 1.09817 114.857 0.457571L113.892 0.3203L112.928 8.83111L113.663 9.0599C115.04 9.56323 116.005 10.1581 116.602 11.0732ZM13.8224 19.2637L14.4194 14.1389L15.7972 0.411814H7.20927L3.35161 35.782H11.8936L13.8224 19.2637ZM21.2622 35.782H31.1819L20.7111 17.4334L34.764 0.411814H24.3851L16.1186 11.119L14.695 24.0225L21.2622 35.782ZM171.482 27.317H161.47L161.975 22.1922H172.033L172.905 13.8186H162.894L163.399 8.87687H173.456L174.329 0.411814H156.235L152.469 35.782H170.609L171.482 27.317ZM136.487 23.9767L142.044 35.7363H151.229L144.386 21.277C146.315 20.1789 147.785 18.7146 148.749 16.9301C149.759 15.0083 150.356 13.0865 150.586 11.2562C150.907 8.00749 150.264 5.35358 148.611 3.38602C146.958 1.41847 144.478 0.411814 141.309 0.411814H130.976L127.21 35.782H135.293L136.487 23.9767ZM137.911 7.64143H138.737C140.207 7.64143 141.263 7.96173 141.952 8.64809C142.595 9.28869 142.871 10.1581 142.779 11.302C142.457 14.322 140.804 15.7404 137.589 15.7404H137.084L137.911 7.64143Z" fill="#9CA09E"/>
</svg>
