<svg width="258" height="43" viewBox="0 0 258 43" fill="none" xmlns="http://www.w3.org/2000/svg">
<g clip-path="url(#clip0_29_162)">
<path d="M1.98748 39.8641V3.1359C1.98748 2.78718 2.28767 2.47949 2.66033 2.47949H46.5816C46.9439 2.47949 47.2441 2.78718 47.2441 3.1359V39.8641C47.2441 40.2333 46.9439 40.5308 46.5816 40.5308H2.66033C2.28767 40.5308 1.98748 40.2333 1.98748 39.8641ZM2.66033 0.5C1.19042 0.5 0 1.68974 0 3.1359V39.8641C0 41.3205 1.19042 42.5 2.66033 42.5H46.5816C48.0412 42.5 49.2316 41.3205 49.2316 39.8641V3.1359C49.2316 1.68974 48.0515 0.5 46.5816 0.5H2.66033Z" fill="#9CA09E"/>
<path d="M40.1326 25.6591L27.7419 25.6181C26.9034 25.6181 26.2203 24.9514 26.2203 24.1206C26.2203 23.7924 26.3341 23.495 26.5101 23.2488L32.8348 16.9411C33.1143 16.6027 33.4456 16.4899 33.9217 16.4899C34.3047 16.4899 34.636 16.6232 34.8948 16.8386L41.3748 23.3001C41.5404 23.5463 41.6336 23.8334 41.6336 24.1411C41.6439 24.9822 40.9711 25.6591 40.1326 25.6591ZM21.5517 25.6181L9.15068 25.6488C8.32256 25.6488 7.64972 24.9719 7.64972 24.1411C7.64972 23.8334 7.74288 23.5463 7.89815 23.3001L14.3885 16.8386C14.668 16.6129 15.02 16.4899 15.3719 16.4899C15.8481 16.4899 16.1793 16.6027 16.4588 16.9411L22.7836 23.2488C22.9492 23.495 23.0631 23.7924 23.0631 24.1206C23.0631 24.9514 22.3902 25.6181 21.5517 25.6181ZM43.1138 6.16165L34.9672 14.2437V14.2642C34.7085 14.5617 34.284 14.7258 33.901 14.7258C33.518 14.7258 33.1764 14.5411 32.8866 14.2129L24.6158 6.03857L16.376 14.2232C16.0862 14.5514 15.7239 14.7258 15.3409 14.7258C14.9579 14.7258 14.5438 14.5411 14.2747 14.2437L6.1384 6.16165L6.07629 6.11037V37.1155H43.176V6.11037L43.1138 6.16165Z" fill="#9CA09E"/>
<path d="M74.8825 37.0745V12.6642H62.4193V6.11035H95.8028V12.6642H84.0435V37.0642H74.8825V37.0745ZM100.037 37.0745V6.11035H130.128V12.9104H108.028V18.7668H129.662V24.8591H108.028V30.9616H130.128V37.0539H100.037V37.0745ZM175.488 37.0745V6.11035H205.58V12.9104H183.48V18.7668H205.114V24.8591H183.48V30.9616H205.58V37.0539H175.488V37.0745ZM247.835 37.1257L233.26 20.7975L246.365 6.11035H235.434L227.774 14.6437L220.145 6.11035H209.213L222.267 20.7975L207.692 37.0745H218.747L227.763 26.9719L236.779 37.1257H247.835ZM135.998 6.11035V37.0745H144.217V25.3411H152.332L161.39 37.0642H171.255C171.255 37.0642 162.207 25.218 162.321 25.3411C172.424 25.5668 176.213 6.1001 159.03 6.1001L135.998 6.11035ZM144.279 12.4283H158.854C163.615 12.4283 163.739 18.7668 159.03 18.7668H144.217L144.279 12.4283ZM253.197 36.6129C251.002 36.6129 249.243 34.8283 249.243 32.6129C249.243 30.3975 251.002 28.6129 253.197 28.6129C255.381 28.6129 257.151 30.3975 257.151 32.6129C257.151 34.818 255.381 36.6129 253.197 36.6129ZM248.373 32.6129C248.373 35.2488 250.526 37.3719 253.197 37.3719C255.857 37.3719 258.01 35.2386 258.01 32.6129C258.01 29.977 255.857 27.8334 253.197 27.8334C250.526 27.8334 248.373 29.977 248.373 32.6129ZM252.12 32.3155V30.6232H253.29C253.89 30.6232 254.512 30.7052 254.512 31.4437C254.512 32.2745 253.818 32.3052 253.042 32.3052L252.12 32.3155ZM251.271 35.4334H252.12V33.095H253.052L254.605 35.4334H255.454L253.849 33.0232C254.698 32.9411 255.36 32.4693 255.36 31.4745C255.36 30.377 254.687 29.8437 253.435 29.8437H251.261L251.271 35.4334Z" fill="#9CA09E"/>
</g>
<defs>
<clipPath id="clip0_29_162">
<rect width="258" height="42" fill="white" transform="translate(0 0.5)"/>
</clipPath>
</defs>
</svg>
