<svg width="21" height="21" viewBox="0 0 21 21" fill="none" xmlns="http://www.w3.org/2000/svg">
<g clip-path="url(#clip0_1_30)">
<path d="M19.7105 14.8313C19.6567 14.7886 15.75 11.9726 14.6777 12.1748C14.1658 12.2653 13.8731 12.6144 13.2858 13.3133C13.1913 13.4262 12.9642 13.6966 12.7877 13.8889C12.4165 13.7678 12.0544 13.6204 11.7042 13.4479C9.89659 12.5679 8.43609 11.1073 7.55606 9.29972C7.38338 8.94956 7.236 8.58747 7.11506 8.21625C7.308 8.03906 7.57837 7.812 7.69387 7.71487C8.3895 7.13081 8.73928 6.83812 8.82984 6.32494C9.01556 5.26181 6.20156 1.32825 6.17203 1.29281C6.04436 1.11042 5.87774 0.958691 5.68422 0.848599C5.49071 0.738507 5.27515 0.672806 5.05312 0.65625C3.91256 0.65625 0.65625 4.88053 0.65625 5.59191C0.65625 5.63325 0.715969 9.83587 5.89838 15.1075C11.1648 20.284 15.3667 20.3438 15.4081 20.3438C16.1201 20.3438 20.3438 17.0874 20.3438 15.9469C20.3274 15.7256 20.2621 15.5108 20.1526 15.3179C20.043 15.1249 19.892 14.9587 19.7105 14.8313Z" fill="white"/>
</g>
<defs>
<clipPath id="clip0_1_30">
<rect width="21" height="21" fill="white"/>
</clipPath>
</defs>
</svg>
