<svg width="17" height="17" viewBox="0 0 17 17" fill="none" xmlns="http://www.w3.org/2000/svg">
<g clip-path="url(#clip0_3_1017)">
<path d="M15.1133 12.2283C15.072 12.1956 12.0765 10.0364 11.2543 10.1914C10.8618 10.2608 10.6374 10.5285 10.1871 11.0644C10.1146 11.1509 9.94049 11.3582 9.80513 11.5057C9.52053 11.4129 9.2429 11.2999 8.97437 11.1675C7.58834 10.4928 6.46848 9.37291 5.79371 7.98688C5.6613 7.71839 5.5483 7.44076 5.45556 7.15612C5.6035 7.02026 5.81081 6.84615 5.89938 6.77168C6.43276 6.32384 6.70096 6.09942 6.7704 5.70592C6.9128 4.89076 4.75512 1.87464 4.73248 1.84747C4.63458 1.70762 4.50682 1.59128 4.35845 1.50686C4.21007 1.42245 4.04478 1.37207 3.87454 1.35938C3 1.35938 0.503174 4.5984 0.503174 5.14386C0.503174 5.17556 0.548964 8.39799 4.52265 12.4401C8.56074 16.4093 11.7827 16.4551 11.8144 16.4551C12.3603 16.4551 15.5989 13.9582 15.5989 13.0837C15.5863 12.914 15.5362 12.7493 15.4523 12.6014C15.3683 12.4534 15.2525 12.326 15.1133 12.2283Z" fill="#D6CECE"/>
</g>
<defs>
<clipPath id="clip0_3_1017">
<rect width="16.1021" height="16.1021" fill="white" transform="translate(0.000488281 0.855957)"/>
</clipPath>
</defs>
</svg>
