<svg width="24" height="24" viewBox="0 0 24 24" fill="none" xmlns="http://www.w3.org/2000/svg">
<g clip-path="url(#clip0_3_986)">
<path d="M23.8547 4.54404C22.9676 4.93317 22.0224 5.1911 21.0369 5.31633C22.0507 4.71102 22.8245 3.75981 23.1883 2.6133C22.243 3.17686 21.1994 3.57494 20.0872 3.79709C19.1896 2.84141 17.9104 2.24951 16.5149 2.24951C13.8074 2.24951 11.6277 4.44713 11.6277 7.14122C11.6277 7.52886 11.6605 7.90159 11.741 8.25643C7.67525 8.05813 4.07767 6.1095 1.66088 3.14108C1.23895 3.87312 0.991462 4.71102 0.991462 5.61303C0.991462 7.30671 1.86365 8.80807 3.16373 9.67727C2.37802 9.66236 1.60721 9.43425 0.954189 9.07494C0.954189 9.08985 0.954189 9.10923 0.954189 9.12861C0.954189 11.5051 2.64936 13.4791 4.87233 13.9338C4.47425 14.0427 4.04039 14.0949 3.59013 14.0949C3.27704 14.0949 2.96097 14.077 2.66427 14.0114C3.29791 15.9481 5.09596 17.3719 7.23394 17.4181C5.57008 18.7197 3.45744 19.5039 1.17037 19.5039C0.769315 19.5039 0.384657 19.486 0 19.4368C2.16631 20.8338 4.73367 21.6315 7.50231 21.6315C16.5015 21.6315 21.4215 14.1769 21.4215 7.71522C21.4215 7.49904 21.4141 7.29031 21.4036 7.08307C22.3742 6.39427 23.1898 5.53401 23.8547 4.54404Z" fill="#D6CECE"/>
</g>
<defs>
<clipPath id="clip0_3_986">
<rect width="23.8547" height="23.8547" fill="white" transform="translate(0 0.0126953)"/>
</clipPath>
</defs>
</svg>
