<svg width="22" height="22" viewBox="0 0 22 22" fill="none" xmlns="http://www.w3.org/2000/svg">
<path d="M0.388585 10.6074L5.45783 12.4994L7.41993 18.8096C7.54548 19.2137 8.03967 19.3631 8.36769 19.0949L11.1934 16.7914C11.4896 16.55 11.9115 16.538 12.221 16.7627L17.3175 20.4629C17.6684 20.7179 18.1655 20.5256 18.2535 20.1016L21.987 2.14295C22.0831 1.67977 21.628 1.29338 21.1869 1.46395L0.382645 9.48963C-0.130762 9.68763 -0.126288 10.4145 0.388585 10.6074ZM7.10372 11.4923L17.0109 5.39044C17.189 5.2811 17.3721 5.52185 17.2192 5.66368L9.04295 13.2639C8.75555 13.5315 8.57017 13.8895 8.51766 14.2781L8.23914 16.3421C8.20225 16.6177 7.81512 16.6451 7.73908 16.3783L6.6679 12.6145C6.54521 12.1852 6.724 11.7267 7.10372 11.4923Z" fill="#9F9F9F"/>
</svg>
