<svg width="22" height="22" viewBox="0 0 22 22" fill="none" xmlns="http://www.w3.org/2000/svg">
<g clip-path="url(#clip0_15_560)">
<path d="M19.5064 9.97148C19.8192 9.56705 20.0676 9.24255 20.251 8.99772C21.572 7.2414 22.1446 6.11945 21.9691 5.6303L21.9003 5.51574C21.8545 5.44693 21.7359 5.38374 21.5452 5.32655C21.3542 5.26939 21.1099 5.26026 20.8122 5.29799L17.5134 5.32126C17.437 5.31365 17.3606 5.31543 17.2842 5.32655C17.2079 5.33816 17.1583 5.34981 17.1353 5.36093C17.1122 5.37258 17.0933 5.38192 17.0781 5.38953L17.0323 5.42391C16.9942 5.44668 16.9522 5.4869 16.9064 5.54434C16.8606 5.60174 16.8222 5.66828 16.7918 5.7449C16.4329 6.66881 16.0245 7.52801 15.5662 8.32219C15.2836 8.79568 15.0239 9.20643 14.7875 9.55341C14.5507 9.90118 14.3522 10.1569 14.1918 10.3208C14.0315 10.4849 13.8862 10.6169 13.7565 10.7159C13.6265 10.8155 13.5274 10.8572 13.4589 10.8421C13.39 10.8269 13.325 10.8117 13.2641 10.796C13.1571 10.7275 13.0711 10.6342 13.0064 10.5155C12.9414 10.3975 12.8976 10.2485 12.8746 10.0689C12.8518 9.88957 12.8382 9.7348 12.8346 9.60478C12.8306 9.47505 12.8326 9.29193 12.8404 9.05492C12.8481 8.81816 12.8518 8.6581 12.8518 8.57387C12.8518 8.284 12.8576 7.96888 12.8691 7.62897C12.8805 7.2893 12.8901 7.01993 12.8976 6.82135C12.9052 6.62306 12.909 6.41287 12.909 6.19132C12.909 5.97026 12.8956 5.79623 12.8687 5.67006C12.8419 5.54434 12.8017 5.42218 12.7486 5.30357C12.695 5.18546 12.6168 5.09363 12.5136 5.02891C12.4105 4.9639 12.2827 4.91257 12.13 4.8741C11.725 4.78227 11.2096 4.73321 10.5836 4.72515C9.16319 4.71048 8.25065 4.80202 7.84597 5.00031C7.68562 5.08453 7.54044 5.19885 7.41071 5.34403C7.27313 5.51223 7.25416 5.60402 7.35356 5.61869C7.81183 5.6875 8.13613 5.8519 8.32706 6.11139L8.39587 6.24872C8.44922 6.34836 8.50262 6.52392 8.55622 6.77581C8.60961 7.02774 8.644 7.30645 8.65941 7.61198C8.6976 8.1694 8.6976 8.64644 8.65941 9.0438C8.62123 9.44112 8.58507 9.75021 8.55068 9.97127C8.51626 10.1928 8.46468 10.3721 8.39612 10.5095C8.32731 10.6473 8.28156 10.7313 8.25854 10.7619C8.23552 10.7922 8.21655 10.8114 8.20138 10.8191C8.10199 10.857 7.99905 10.8762 7.89209 10.8762C7.7851 10.8762 7.65533 10.8226 7.50258 10.7156C7.3498 10.6091 7.19122 10.4619 7.02732 10.2747C6.86292 10.0879 6.67802 9.82609 6.47163 9.48993C6.26549 9.15431 6.0515 8.75695 5.83019 8.29892L5.64707 7.96657C5.53252 7.75311 5.37593 7.44176 5.17739 7.03328C4.97885 6.6248 4.80305 6.22975 4.65055 5.8476C4.58934 5.6875 4.49776 5.56533 4.37564 5.48111L4.31849 5.44673C4.2803 5.41635 4.21909 5.38374 4.13512 5.34957C4.05089 5.31518 3.9634 5.29038 3.87157 5.27497L0.733062 5.29774C0.412363 5.29774 0.194858 5.3706 0.0802988 5.51574L0.0345082 5.5843C0.011365 5.62274 0 5.68394 0 5.76767C0 5.8519 0.0230193 5.95484 0.0688098 6.07676C0.527087 7.1537 1.02537 8.19222 1.56357 9.19225C2.10207 10.1928 2.56973 10.9986 2.9668 11.6094C3.36387 12.2208 3.76855 12.7969 4.18107 13.3391C4.5936 13.8814 4.86649 14.2286 5.00001 14.3812C5.13354 14.5342 5.23851 14.6488 5.31493 14.7249L5.60124 15C5.78436 15.1832 6.05373 15.4027 6.40886 15.6587C6.76394 15.9146 7.157 16.1665 7.58875 16.4144C8.02 16.6628 8.52229 16.8649 9.09488 17.0217C9.66751 17.1785 10.2249 17.2414 10.7672 17.2106H12.0844C12.3518 17.1878 12.554 17.1041 12.6915 16.9587L12.7372 16.9015C12.7675 16.856 12.7964 16.7852 12.8232 16.6898C12.8497 16.5944 12.8635 16.4892 12.8635 16.3749C12.8556 16.0467 12.8807 15.7502 12.9378 15.4872C12.995 15.2236 13.0599 15.0253 13.1326 14.8913C13.2052 14.758 13.2871 14.6452 13.3789 14.5534C13.4705 14.4616 13.5352 14.4067 13.5736 14.3875C13.6118 14.3687 13.6425 14.3553 13.6653 14.3472C13.8483 14.2862 14.0641 14.3455 14.3124 14.5248C14.5606 14.7046 14.7935 14.9257 15.0113 15.1892C15.2287 15.4527 15.4903 15.7484 15.7958 16.077C16.1011 16.4052 16.3684 16.6495 16.5976 16.8099L16.8267 16.9478C16.9794 17.039 17.1778 17.123 17.4224 17.1997C17.6667 17.2758 17.8807 17.295 18.0638 17.2568L20.9961 17.2108C21.2862 17.2108 21.5116 17.1633 21.672 17.0676C21.8323 16.9728 21.9277 16.8671 21.9583 16.7528C21.9886 16.6382 21.9907 16.509 21.9641 16.3635C21.9373 16.2186 21.9105 16.1174 21.884 16.0603C21.8572 16.0031 21.8323 15.955 21.8093 15.9171C21.4275 15.2299 20.6982 14.3859 19.6215 13.3856L19.5985 13.3628L19.5872 13.3512L19.5758 13.3401H19.5643C19.0754 12.8742 18.7663 12.561 18.6365 12.4004C18.3999 12.0954 18.3462 11.7861 18.4762 11.473C18.5673 11.2356 18.9108 10.7353 19.5064 9.97148Z" fill="#9F9F9F"/>
</g>
<defs>
<clipPath id="clip0_15_560">
<rect width="22" height="22" fill="white"/>
</clipPath>
</defs>
</svg>
